<?xml version="1.0" encoding="UTF-8" standalone="no"?>
<!-- Created with Inkscape (http://www.inkscape.org/) -->

<svg
   width="57.595741mm"
   height="12.012161mm"
   viewBox="0 0 57.595741 12.012161"
   version="1.1"
   id="svg5"
   inkscape:version="1.1.2 (b8e25be833, 2022-02-05)"
   sodipodi:docname="queeserp.svg"
   xmlns:inkscape="http://www.inkscape.org/namespaces/inkscape"
   xmlns:sodipodi="http://sodipodi.sourceforge.net/DTD/sodipodi-0.dtd"
   xmlns="http://www.w3.org/2000/svg"
   xmlns:svg="http://www.w3.org/2000/svg">
  <sodipodi:namedview
     id="namedview7"
     pagecolor="#505050"
     bordercolor="#eeeeee"
     borderopacity="1"
     inkscape:pageshadow="0"
     inkscape:pageopacity="0"
     inkscape:pagecheckerboard="false"
     inkscape:document-units="mm"
     showgrid="false"
     inkscape:zoom="4.1474471"
     inkscape:cx="110.01296"
     inkscape:cy="57.489596"
     inkscape:window-width="1920"
     inkscape:window-height="1009"
     inkscape:window-x="-8"
     inkscape:window-y="-8"
     inkscape:window-maximized="1"
     inkscape:current-layer="text2079"
     fit-margin-top="0"
     fit-margin-left="0"
     fit-margin-right="0"
     fit-margin-bottom="0" />
  <defs
     id="defs2" />
  <g
     inkscape:label="Capa 1"
     inkscape:groupmode="layer"
     id="layer1"
     transform="translate(-2.8611585,-24.531143)">
    <g
       aria-label="QUE ES ERP?"
       id="text2079"
       style="font-size:10.5833px;stroke-width:0.264583">
      <g
         id="path32560">
        <path
           style="color:#000000;fill:#66c0f4;-inkscape-stroke:none"
           d="m 6.4319885,32.626243 0.036173,-0.06718 q 0.025838,-0.04651 0.036173,-0.07751 0.2118726,-0.651121 0.2635489,-1.338416 0.031006,-0.43408 0.031006,-0.873328 0,-0.490925 -0.036173,-0.98185 l -0.00517,-0.124023 q -0.067179,-1.322912 -0.60978,-2.573478 -0.036173,-0.10852 -0.1395259,-0.19637 l -0.062011,0.470255 q -0.1033526,0.728635 -0.1240231,1.064531 -0.025838,0.315225 -0.072347,0.63045 -0.2635489,1.534785 -0.2635489,2.676831 0,0.144693 -0.00517,0.289387 -0.00517,0.139526 -0.00517,0.289387 0,0.294555 0.051676,0.604612 0.025838,-0.170531 0.1188554,-0.21704 0.098185,-0.04651 0.2170403,-0.04651 l 0.098185,-0.0052 q 0.1963699,0 0.2893871,0.08268 0.093017,0.08268 0.1550288,0.294554 z m -0.527098,3.917061 q -0.4960921,0 -0.4960921,-0.315225 v -0.01033 q -0.031006,-0.723468 -0.051676,-1.452103 0,-0.07752 -0.031006,-0.10852 -0.025838,-0.02584 -0.098185,-0.02584 Q 4.4992961,34.595109 4.1065564,34.264381 3.5226146,33.783792 3.253898,32.967307 2.9955167,32.336856 2.9283375,31.794255 q -0.067179,-0.506427 -0.067179,-1.064531 0,-0.63045 0.1085201,-1.214392 0.1085202,-0.635618 0.3358958,-1.467606 0.5477684,-1.989536 1.2764038,-2.842195 0.020671,-0.03101 0.051676,-0.04651 0.6459533,-0.423746 1.1988894,-0.423746 0.2170403,0 0.4444159,0.06718 1.5244499,0.279052 2.1910737,1.715653 0.5374332,1.157548 0.5374332,2.702668 0,0.242879 -0.015503,0.465087 0,1.162716 -0.2532137,2.103224 -0.4547511,1.813837 -1.8913514,2.563143 -0.165364,0.08268 -0.3513986,0.144693 -0.08785,0.02584 -0.08785,0.124023 -0.025838,0.599445 -0.025838,1.19889 l 0.00517,0.43408 q 0,0.289387 -0.4805893,0.289387 z"
           id="path32617" />
        <path
           style="color:#000000;fill:#000000;-inkscape-stroke:none"
           d="m 5.8320312,24.603516 c -0.4000225,0 -0.8214615,0.154744 -1.2636718,0.443359 -0.03768,0.0205 -0.070305,0.04958 -0.09375,0.08398 -0.5053732,0.595193 -0.9305136,1.550207 -1.296875,2.88086 v 0.002 c -0.1524312,0.557759 -0.2645759,1.0491 -0.3378906,1.478515 -0.073678,0.397129 -0.1113282,0.81106 -0.1113282,1.238282 0,0.377377 0.02274,0.738133 0.068359,1.082031 0.046315,0.372588 0.1589116,0.770881 0.3320313,1.195312 0.1853218,0.563094 0.4836401,1.020164 0.8925781,1.357422 0.2908412,0.244919 0.6946962,0.373388 1.1992187,0.398438 h 0.00391 c 1.719e-4,0.0027 0,-0.0015 0,0.002 v 0.002 0.002 c 0.013798,0.48639 0.032036,0.970172 0.052734,1.453125 v 0.0059 c 0,0.139774 0.067217,0.273708 0.1835938,0.347656 0.1163767,0.07395 0.2639855,0.09961 0.4433594,0.09961 0.1734729,0 0.3162003,-0.02346 0.4296875,-0.0918 0.1134871,-0.06834 0.1835937,-0.196999 0.1835937,-0.330078 l -0.00586,-0.435547 c 2.8e-5,-0.397078 0.010228,-0.794322 0.027344,-1.191406 v -0.0039 -0.002 c 0.1280433,-0.04289 0.2503432,-0.09295 0.3652344,-0.150391 h 0.00195 v -0.002 c 0.9914654,-0.517131 1.6488711,-1.411508 1.9589844,-2.648438 0.1709508,-0.636375 0.2550771,-1.345943 0.2558594,-2.125 0.010568,-0.151476 0.017578,-0.309875 0.017578,-0.474609 0,-1.045417 -0.1830253,-1.965723 -0.5507813,-2.757812 C 8.1295934,25.475242 7.3558165,24.8678 6.3066406,24.673828 6.1468091,24.627348 5.987772,24.603516 5.8320312,24.603516 Z m 0,0.263671 c 0.1310442,10e-7 0.267589,0.02095 0.4082032,0.0625 l 0.00586,0.002 h 0.00781 c 0.980107,0.179409 1.6641647,0.716804 2.0937501,1.642578 0.3488208,0.751306 0.5253906,1.631743 0.5253906,2.646484 0,0.159105 -0.00552,0.310278 -0.015625,0.455078 v 0.0059 0.0039 c 0,0.76554 -0.082796,1.454569 -0.2480469,2.068359 v 0.002 0.002 c -0.2962209,1.181518 -0.900219,1.994621 -1.8242188,2.476563 -0.102614,0.05121 -0.2118713,0.0958 -0.328125,0.134766 -4.893e-4,1.44e-4 -0.00146,-1.47e-4 -0.00195,0 -8.354e-4,2.79e-4 -0.00112,0.0017 -0.00195,0.002 -0.049746,0.01547 -0.1000073,0.04744 -0.1328125,0.09375 -0.033677,0.04754 -0.046875,0.103794 -0.046875,0.15625 -0.017139,0.399573 -0.025391,0.79964 -0.025391,1.199218 l 0.00586,0.435547 c -2.745e-4,0.05773 -0.010609,0.07384 -0.056641,0.101563 -0.046709,0.02813 -0.146049,0.05273 -0.2929687,0.05273 -0.1513539,0 -0.2517941,-0.02551 -0.3007813,-0.05664 -0.048987,-0.03113 -0.0625,-0.05463 -0.0625,-0.125 v -0.01367 -0.002 c -0.020588,-0.480375 -0.037038,-0.963457 -0.050781,-1.447266 0,-0.06932 -0.010651,-0.141522 -0.070312,-0.201172 C 5.3608997,34.505426 5.2965689,34.500267 5.234375,34.5 L 5.228515,34.498 C 4.7655478,34.473943 4.4229052,34.359009 4.1914062,34.164062 v -0.002 C 3.8228071,33.858749 3.5515643,33.450396 3.3789063,32.925781 v -0.0039 l -0.00195,-0.0039 C 3.2082237,32.506269 3.1035595,32.124753 3.0605469,31.777344 h -0.00195 c -0.043953,-0.331338 -0.064453,-0.680114 -0.064453,-1.046875 0,-0.412709 0.034685,-0.810521 0.1054688,-1.191407 v -0.002 c 0.071379,-0.418074 0.1832483,-0.903521 0.3339844,-1.455078 0.3624775,-1.316546 0.7846674,-2.248763 1.2480468,-2.791015 l 0.00586,-0.0059 0.00391,-0.0059 c 0,0 0.00195,-0.002 0.00195,-0.002 l 0.00586,-0.0039 0.00781,-0.0039 c 0.4161597,-0.273001 0.7901705,-0.402343 1.125,-0.402344 z m 0.076172,1.269532 -0.09375,0.710937 c -0.068904,0.485997 -0.1107752,0.841112 -0.125,1.072266 -0.01698,0.206643 -0.039815,0.412434 -0.070312,0.61914 -0.176373,1.027661 -0.265625,1.92628 -0.265625,2.697266 0,0.09489 -5.158e-4,0.190266 -0.00391,0.285156 -0.00351,0.09477 -0.00586,0.191541 -0.00586,0.292969 0,0.204106 0.017167,0.413548 0.052734,0.626953 l 0.2617187,-0.002 c 0.013772,-0.09089 0.038003,-0.112466 0.046875,-0.117187 0.046358,-0.02166 0.096947,-0.0332 0.1582031,-0.0332 h 0.00391 l 0.09375,-0.0059 c 0.00102,0 9.402e-4,-4e-6 0.00195,0 0.110414,4.46e-4 0.1739601,0.02464 0.2011719,0.04883 0.030671,0.02726 0.075835,0.104215 0.1132812,0.230469 l 0.1113282,0.421875 0.1601562,-0.294922 0.035156,-0.06641 v -0.002 c 0.019189,-0.03466 0.034029,-0.06498 0.044922,-0.09766 h 0.00195 c 0.1445069,-0.444094 0.2343011,-0.902532 0.2695312,-1.371093 0.020897,-0.29255 0.03125,-0.586868 0.03125,-0.882813 0,-0.328583 -0.013043,-0.657771 -0.037109,-0.986328 v -0.0059 l -0.0039,-0.118964 C 6.8452395,28.264455 6.6380184,27.392705 6.2734375,26.548828 l -0.00195,-0.002 C 6.2385635,26.449887 6.1766029,26.363394 6.09375,26.292969 Z m 0.171875,0.730468 c 0.298823,0.750602 0.5048507,1.513639 0.5449219,2.302735 l 0.00586,0.125 v 0.002 c 0.023878,0.32406 0.035156,0.648622 0.035156,0.972656 0,0.289719 -0.00885,0.577058 -0.029297,0.863281 -0.029252,0.389055 -0.1166376,0.76569 -0.2246093,1.136719 -0.025991,-0.04166 -0.037107,-0.103514 -0.072266,-0.134765 -0.096561,-0.08583 -0.2294263,-0.117188 -0.3789062,-0.117188 h -0.00195 l -0.095703,0.0059 c -0.082089,0 -0.1586917,0.02206 -0.2324218,0.05078 -0.00657,-0.08616 -0.023437,-0.175835 -0.023437,-0.259766 0,-0.09839 0.00248,-0.191937 0.00586,-0.283203 v -0.002 c 0.0035,-0.09803 0.00586,-0.194931 0.00586,-0.292969 0,-0.751187 0.086946,-1.636502 0.2617188,-2.654297 v -0.002 -0.002 c 0.031419,-0.21295 0.054806,-0.425659 0.072266,-0.638672 l 0.00195,-0.002 c 0.01331,-0.216292 0.05437,-0.570516 0.1230469,-1.054688 z"
           id="path32619" />
      </g>
      <g
         id="path32562">
        <path
           style="color:#000000;fill:#66c0f4;-inkscape-stroke:none"
           d="m 12.803672,34.677791 q -0.279051,0 -0.552936,-0.02067 -0.273884,-0.02067 -0.537433,-0.118856 -1.002519,-0.346231 -1.426265,-1.322912 -0.454751,-1.167884 -0.4909244,-2.537305 l -0.00517,-0.294555 q 0.00517,-0.232543 0.00517,-1.426265 0.015503,-0.733803 0.08785,-1.462438 l 0.015503,-0.175699 0.051676,-0.69763 0.031006,-0.335896 0.015503,-0.320393 q 0,-1.02319 0.4444154,-1.157548 0.279052,-0.08268 0.547768,-0.08268 0.418578,0 0.811318,0.19637 0.284219,0.170532 0.315225,0.50126 0.05168,0.428913 0.05168,0.868161 l -0.0052,0.620115 q 0,0.475422 0.0155,0.769977 0.01033,0.273884 0.02067,0.966346 l -0.0052,0.702797 q 0.01034,0.764809 0.04134,1.431433 0.0155,0.490924 0.0155,0.702797 v 0.170532 q 0,1.467606 0.361734,2.056715 0.06718,0.129191 0.155029,0.129191 0.04651,0 0.124023,-0.04134 0.423745,-0.217041 0.682127,-0.759641 0.418578,-0.847491 0.496092,-1.793167 0.144694,-1.746658 0.144694,-2.578646 0,-0.728635 -0.07752,-1.798334 -0.01033,-0.279052 -0.02067,-0.346231 -0.03101,-0.511595 -0.05168,-1.02319 -0.01033,-0.160196 -0.04651,-0.315225 -0.01034,-0.05168 -0.01034,-0.09819 0,-0.144694 0.149862,-0.222208 0.315225,-0.165364 0.635618,-0.165364 0.723467,0 0.723467,0.449583 0,0.583942 0.03101,1.00252 0.06718,0.961179 0.06718,2.304762 0,0.423745 -0.01033,0.811317 l -0.0052,0.21704 q -0.0155,0.713133 -0.149862,1.669144 l -0.04651,0.310057 q -0.08785,0.645954 -0.242879,1.286739 -0.149861,0.635619 -0.578774,1.131711 -0.702797,0.785479 -1.777664,0.795814 z"
           id="path32623" />
        <path
           style="color:#000000;fill:#000000;-inkscape-stroke:none"
           d="m 14.792969,24.566406 c -0.236355,0 -0.470788,0.06283 -0.697266,0.181641 -0.128373,0.0675 -0.220703,0.196702 -0.220703,0.33789 0,0.04081 0.0053,0.08306 0.01367,0.125 v 0.002 0.002 c 0.02246,0.09624 0.03654,0.193334 0.04297,0.292968 0.0138,0.341303 0.03205,0.682138 0.05273,1.023438 v 0.0059 l 0.002,0.0059 c 0.0037,0.02411 0.01074,0.147235 0.01758,0.332031 v 0.002 l 0.002,0.002 c 0.05152,0.710972 0.07617,1.307998 0.07617,1.789063 0,0.546989 -0.04821,1.405644 -0.144531,2.568359 -0.05035,0.614334 -0.210586,1.193757 -0.482422,1.744141 v 0.002 c -0.163129,0.342569 -0.370652,0.569943 -0.623047,0.699219 h -0.002 c -0.04198,0.02239 -0.07069,0.02734 -0.0625,0.02734 0.0063,0 -0.0032,0.0066 -0.03711,-0.05859 l -0.002,-0.0039 -0.0039,-0.0039 c -0.215523,-0.350994 -0.341796,-1.020747 -0.341796,-1.988281 v -0.169922 c 0,-0.144475 -0.0053,-0.379149 -0.01563,-0.707031 v -0.002 c -0.02053,-0.441542 -0.03412,-0.916793 -0.04102,-1.423829 v -0.0039 l 0.0059,-0.701172 v -0.002 c -0.0069,-0.462038 -0.0145,-0.783626 -0.02148,-0.96875 v -0.002 c -0.01011,-0.192147 -0.0156,-0.447324 -0.01563,-0.761719 v -0.002 l 0.0059,-0.61914 c 0,-0.296709 -0.01795,-0.590844 -0.05273,-0.88086 -0.02398,-0.255783 -0.158894,-0.469554 -0.378906,-0.601562 l -0.0039,-0.0039 -0.0059,-0.002 c -0.278641,-0.13932 -0.569401,-0.210937 -0.869141,-0.210937 -0.192711,0 -0.388813,0.03144 -0.585937,0.08984 -0.19266,0.05825 -0.336503,0.21827 -0.419922,0.435546 -0.083419,0.217277 -0.1191406,0.497017 -0.1191406,0.847657 l -0.015625,0.310547 -0.03125,0.335937 -0.050781,0.697266 -0.015625,0.173828 c -0.048571,0.489177 -0.077483,0.980034 -0.087891,1.472656 v 0.002 c 0,0.795623 -0.00252,1.273829 -0.00586,1.423828 v 0.002 l 0.00586,0.298829 c 0.024476,0.926582 0.1909197,1.788256 0.5000006,2.582031 v 0.002 l 0.002,0.002 c 0.294989,0.679914 0.804213,1.152762 1.501953,1.394531 0.186902,0.06963 0.377177,0.11223 0.572265,0.126953 0.185307,0.01399 0.371915,0.02144 0.560547,0.02148 6.57e-4,0 0.0013,0 0.002,0 l 0.0039,-0.265625 -0.002,0.265625 c 0.74852,-0.0072 1.384314,-0.291431 1.875,-0.839844 v -0.002 h 0.002 c 0.299238,-0.346107 0.502809,-0.743799 0.607422,-1.1875 0.104247,-0.430888 0.184981,-0.86432 0.24414,-1.298828 v -0.002 l 0.04687,-0.308594 c 0.09,-0.640398 0.141778,-1.201528 0.152344,-1.683594 v -0.002 l 0.0039,-0.214844 v -0.002 c 0.0069,-0.2591 0.01172,-0.53156 0.01172,-0.814453 0,-0.897926 -0.02327,-1.667438 -0.06836,-2.3125 v -0.002 c -0.02034,-0.274531 -0.03125,-0.605235 -0.03125,-0.992188 0,-0.185341 -0.08803,-0.353419 -0.242188,-0.449218 -0.15416,-0.0958 -0.358424,-0.132813 -0.613281,-0.132813 z m 0,0.265625 c 0.227454,0 0.38566,0.03773 0.472656,0.0918 0.087,0.05406 0.119141,0.110229 0.119141,0.224609 0,0.391637 0.01024,0.728147 0.03125,1.011719 0.04449,0.636509 0.06641,1.401406 0.06641,2.294922 0,0.281422 -0.0029,0.551496 -0.0098,0.808594 l -0.0059,0.216797 v 0.002 c -0.01018,0.468403 -0.0594,1.018799 -0.148438,1.652344 l -0.04687,0.310546 c -0.05795,0.426128 -0.137928,0.850572 -0.240234,1.273438 v 0.002 c -0.095,0.402911 -0.27717,0.757426 -0.548828,1.072266 -4.33e-4,4.83e-4 -0.0015,-4.83e-4 -0.002,0 -3.92e-4,4.54e-4 3.92e-4,0.0015 0,0.002 -0.446039,0.497484 -0.994061,0.743426 -1.677735,0.75 -0.182767,0 -0.363741,-0.006 -0.542968,-0.01953 -0.17009,-0.01284 -0.335504,-0.05004 -0.5,-0.111329 h -0.002 -0.002 c -0.637005,-0.219996 -1.076039,-0.631356 -1.345703,-1.251953 -4.3e-5,-1.11e-4 -0.0019,1.12e-4 -0.002,0 -0.295658,-0.761306 -0.456582,-1.589968 -0.4804686,-2.486328 v -0.002 l -0.00391,-0.287109 v -0.0039 -0.002 c 0.00352,-0.161513 0.0039,-0.631106 0.00391,-1.419922 v -0.0039 c 0.010336,-0.484471 0.040127,-0.968175 0.087891,-1.449219 l 0.01563,-0.177734 0.05078,-0.697266 0.03125,-0.33789 0.01758,-0.326172 v -0.0039 c 0,-0.331487 0.03684,-0.585334 0.101563,-0.753907 0.06472,-0.168572 0.14443,-0.246017 0.248047,-0.277343 0.174945,-0.05183 0.34419,-0.07617 0.509765,-0.07617 0.255675,0 0.501601,0.05975 0.744141,0.179687 0.157094,0.0951 0.232737,0.214305 0.25,0.398438 v 0.002 c 0.03381,0.280617 0.05078,0.565872 0.05078,0.853516 l -0.0039,0.61914 c 0,0.318386 0.0051,0.577244 0.01563,0.777344 0.0068,0.180264 0.01266,0.500629 0.01953,0.960937 l -0.0039,0.701172 v 0.002 c 0.0069,0.51114 0.02027,0.989469 0.04102,1.435547 0.01026,0.325254 0.01563,0.559629 0.01563,0.697266 v 0.169922 c 0,0.987512 0.115086,1.688386 0.380859,2.123047 0.05605,0.10425 0.14673,0.195312 0.267578,0.195312 0.0702,0 0.124178,-0.02391 0.185547,-0.05664 0.310718,-0.159906 0.557478,-0.439863 0.738281,-0.81836 0.286268,-0.579603 0.456769,-1.193277 0.509766,-1.839844 0.09661,-1.166159 0.144531,-2.027516 0.144531,-2.589843 0,-0.488862 -0.02467,-1.090486 -0.07617,-1.802735 v -0.0059 c -0.0068,-0.181762 -0.01353,-0.291066 -0.02344,-0.355469 l 0.002,0.01172 c -0.02062,-0.340177 -0.03704,-0.68131 -0.05078,-1.021484 v -0.002 c -0.0073,-0.113959 -0.025,-0.22743 -0.05078,-0.33789 l 0.002,0.0039 c -0.0054,-0.02697 -0.0078,-0.05106 -0.0078,-0.07227 0,-0.05079 0.0081,-0.06727 0.07813,-0.103515 0.193822,-0.101677 0.383383,-0.150391 0.574219,-0.150391 z"
           id="path32625" />
      </g>
      <g
         id="path32564">
        <path
           style="color:#000000;fill:#66c0f4;-inkscape-stroke:none"
           d="m 19.692119,34.677791 q -0.480589,0 -0.966346,-0.07751 -0.682127,-0.08785 -1.074867,-0.341064 -1.21956,-0.862993 -1.21956,-3.539824 0,-1.157548 0.222208,-2.909374 0.04651,-0.408242 0.08268,-0.744138 0.04134,-0.341063 0.149862,-0.795815 0.05168,-0.232543 0.06718,-0.335895 0.05168,-0.346231 0.165364,-0.676959 0.113688,-0.330729 0.387572,-0.423746 0.480589,-0.113688 0.966346,-0.124023 l 0.113688,-0.0052 h 0.320393 q 0.335895,-0.0155 0.666623,-0.0155 l 0.98185,0.01033 0.583941,-0.01033 q 0.268717,0 0.537434,0.07235 0.08785,0.03101 0.186034,0.170532 0.09819,0.139526 0.09819,0.289387 0,0.103353 -0.06718,0.180867 -0.113688,0.139526 -0.542601,0.139526 -0.361734,-0.0155 -0.682127,-0.02067 l -0.320393,-0.01034 q -0.320392,0 -0.527097,0.0155 -0.206706,0.01034 -0.413411,0.01034 l -0.160196,-0.0052 q 0.0052,0.03617 0.0052,0.206705 0.0052,0.170532 0.01034,0.41341 0.0052,0.237711 0.0052,0.459919 0,0.299722 -0.01034,0.459919 l -0.02584,0.444415 -0.07235,1.426265 0.0052,0.05684 q 0,0.03617 -0.02584,0.165364 0,0.03101 0.02584,0.03617 0.05168,0.02067 0.418578,0.03101 0.289387,0.01033 0.578774,0.04651 0.155029,0.02584 0.284219,0.10852 0.08268,0.07752 0.08268,0.186035 0,0.124023 -0.103352,0.201537 -0.175699,0.08268 -0.372069,0.08268 -0.403075,0.01034 -0.80615,0.01034 -0.08268,0 -0.10852,0.03617 -0.04651,0.06201 -0.04651,0.831988 l 0.0052,0.201537 q 0,0.496093 -0.06718,0.987017 -0.05168,0.294555 -0.05168,0.583942 0,0.480589 0.139526,0.785479 0.206705,0.671792 0.625283,0.671792 0.434081,0 0.873329,-0.232543 0.28422,-0.134359 0.583942,-0.134359 0.211873,0 0.423745,0.05684 0.03101,0.0052 0.05684,0.02067 0.211873,0.07235 0.211873,0.206705 0,0.09819 -0.134358,0.206705 -0.578775,0.444416 -1.297075,0.532265 -0.382404,0.05684 -0.769976,0.05684 z"
           id="path32629" />
        <path
           style="color:#000000;fill:#000000;-inkscape-stroke:none"
           d="m 19.574219,24.556641 c -0.222552,0 -0.447901,0.0052 -0.673828,0.01563 h -0.316407 l -0.117187,0.0059 c -0.331922,0.0073 -0.662272,0.04937 -0.990235,0.126953 l -0.0078,0.002 -0.0059,0.002 c -0.222519,0.07557 -0.383581,0.258095 -0.46875,0.50586 -0.0784,0.228078 -0.136239,0.460473 -0.171875,0.699218 -0.0093,0.06197 -0.03029,0.174414 -0.06445,0.328125 -0.07293,0.305857 -0.124031,0.575009 -0.152343,0.808594 -0.02408,0.223602 -0.053,0.472202 -0.08398,0.744141 -0.148399,1.170452 -0.222656,2.144183 -0.222656,2.923828 0,1.804643 0.409705,3.035855 1.275391,3.648437 l 0.002,0.002 0.0039,0.002 c 0.284248,0.183265 0.659829,0.29897 1.125,0.359375 0.330542,0.05274 0.658824,0.08008 0.986328,0.08008 h 0.03711 l 0.0059,-0.0039 c 0.248975,-0.002 0.498258,-0.01832 0.744141,-0.05469 0.501298,-0.06131 0.95785,-0.248781 1.361328,-0.558594 h 0.002 v -0.002 c 0.104745,-0.0846 0.183594,-0.182793 0.183594,-0.308594 0,-0.07955 -0.03598,-0.160383 -0.0918,-0.214843 -0.05277,-0.05149 -0.120566,-0.08389 -0.197266,-0.111328 -0.02404,-0.01273 -0.04984,-0.0236 -0.07617,-0.0293 -0.0019,-5.11e-4 -0.004,5.04e-4 -0.0059,0 -0.150031,-0.03974 -0.301965,-0.0625 -0.453125,-0.0625 -0.219582,0 -0.434901,0.05119 -0.640625,0.148437 h -0.002 l -0.0039,0.002 c -0.276905,0.146597 -0.544783,0.216797 -0.810546,0.216797 -0.10414,0 -0.185378,-0.03459 -0.269532,-0.125 -0.08415,-0.09041 -0.165257,-0.241189 -0.230468,-0.453125 l -0.002,-0.0078 -0.0039,-0.0078 c -0.08207,-0.179344 -0.126953,-0.422879 -0.126953,-0.730469 0,-0.185049 0.01565,-0.373393 0.04883,-0.5625 l 0.002,-0.002 v -0.002 c 0.0456,-0.333213 0.06836,-0.669159 0.06836,-1.005859 l -0.0059,-0.201172 v -0.002 -0.002 c 5.2e-5,-0.252842 0.0043,-0.448802 0.01172,-0.582032 0.0037,-0.06706 0.0088,-0.117253 0.01367,-0.15039 0.268544,-1.7e-5 0.536144,-0.0029 0.804687,-0.0098 0.14948,0 0.293422,-0.0325 0.427735,-0.0957 l 0.01172,-0.0059 0.01172,-0.0078 c 0.09599,-0.072 0.15625,-0.187211 0.15625,-0.30664 0,-0.105942 -0.04741,-0.210457 -0.125,-0.283204 l -0.0098,-0.0078 -0.0098,-0.0059 c -0.101092,-0.0647 -0.213939,-0.108898 -0.333984,-0.128907 h -0.002 -0.002 c -0.196772,-0.0246 -0.39494,-0.03985 -0.591796,-0.04687 -0.121146,-0.0034 -0.21696,-0.0088 -0.283204,-0.01367 -0.01442,-0.0011 -0.007,-2.47e-4 -0.01953,-0.002 0.004,-0.02605 0.01172,-0.06099 0.01172,-0.08594 v -0.0059 l -0.0039,-0.05273 0.07227,-1.416016 0.02539,-0.443359 v -0.002 c 0.0072,-0.111979 0.0098,-0.2663 0.0098,-0.466797 0,-0.14917 -0.0024,-0.303516 -0.0059,-0.462891 h 0.002 c -0.0034,-0.160678 -0.0083,-0.296514 -0.01172,-0.410156 0,-0.0357 -0.0019,-0.04412 -0.002,-0.07031 h 0.02344 0.002 c 0.140009,0 0.279921,-0.0028 0.419922,-0.0098 h 0.002 0.002 c 0.131717,-0.0099 0.302436,-0.01555 0.511719,-0.01563 L 20.666,25.6522 c 0.212265,0.0034 0.439572,0.0112 0.679687,0.02148 h 0.002 0.0039 c 0.299448,0 0.515177,-0.03245 0.642579,-0.1875 h 0.002 c 0.06279,-0.07341 0.09766,-0.168918 0.09766,-0.265625 0,-0.1288 -0.04476,-0.253987 -0.123047,-0.365234 -0.07349,-0.104429 -0.147297,-0.182497 -0.25,-0.21875 l -0.0059,-0.002 -0.0039,-0.002 c -0.189834,-0.05111 -0.381248,-0.07617 -0.572265,-0.07617 l -0.583985,0.0098 z m -0.002,0.263671 0.982421,0.01172 0.583985,-0.01172 c 0.164002,0 0.329022,0.02282 0.49414,0.06641 0.01443,0.0051 0.06367,0.03949 0.121094,0.121093 0.05263,0.07479 0.07422,0.141877 0.07422,0.212891 0,0.04024 -0.0094,0.06406 -0.03516,0.09375 v 0.002 l -0.002,0.002 c -0.02433,0.02986 -0.167857,0.08984 -0.439454,0.08984 l 0.0059,0.002 c -0.241507,-0.01035 -0.469204,-0.01801 -0.683594,-0.02148 h -0.002 l -0.322266,-0.0098 h -0.002 c -0.215728,0 -0.394224,0.0049 -0.537109,0.01563 -0.133,0.0066 -0.265446,0.0097 -0.398438,0.0098 l -0.318359,-0.0098 0.02344,0.15625 c -7e-4,-0.0049 0.0039,0.07515 0.0039,0.1875 v 0.002 0.002 c 0.0034,0.113103 0.0063,0.25048 0.0098,0.41211 0.0034,0.157573 0.0059,0.309925 0.0059,0.457031 0,0.198293 -0.0032,0.349666 -0.0098,0.451172 l -0.02734,0.445312 -0.07227,1.4375 0.0059,0.05664 c -3.45e-4,-0.0035 -0.0071,0.05518 -0.02344,0.136719 l -0.002,0.01172 v 0.01367 c 1e-6,0.02871 0.0062,0.06643 0.03125,0.101563 0.02304,0.03224 0.05981,0.05006 0.0918,0.05859 0.05336,0.01861 0.08772,0.02046 0.154297,0.02539 0.0728,0.0054 0.170674,0.0102 0.292969,0.01367 0.187057,0.0067 0.375362,0.0217 0.5625,0.04492 0.0809,0.01348 0.151599,0.04346 0.21875,0.08398 0.0247,0.02567 0.03711,0.04546 0.03711,0.08008 0,0.04111 -0.0135,0.05991 -0.04492,0.08594 -0.09475,0.04188 -0.190806,0.06641 -0.296875,0.06641 h -0.002 -0.002 c -0.267586,0.0069 -0.535149,0.0098 -0.802734,0.0098 -0.0736,0 -0.158797,0.01368 -0.214844,0.08984 -0.04718,0.0629 -0.03813,0.08824 -0.04492,0.134765 -0.0068,0.04653 -0.01162,0.104179 -0.01563,0.175782 -0.008,0.143206 -0.01172,0.341618 -0.01172,0.599609 v 0.002 l 0.0039,0.203125 c -1.76e-4,0.323442 -0.02065,0.646733 -0.06445,0.966797 -0.03505,0.201659 -0.05273,0.402685 -0.05273,0.601562 0,0.330808 0.04602,0.607683 0.148438,0.833985 0.07203,0.230322 0.162961,0.413638 0.285156,0.544922 0.124274,0.133518 0.287978,0.210937 0.462891,0.210937 0.311017,0 0.622836,-0.08467 0.929687,-0.246094 l 0.0059,-0.002 c 0.171288,-0.08002 0.343484,-0.11914 0.521485,-0.11914 0.129418,0 0.258083,0.0177 0.388672,0.05273 h 0.0078 l 0.0059,0.002 c 0.0055,9.19e-4 0.007,0.0022 0.0098,0.0039 l 0.01172,0.0059 0.01367,0.0059 c 0.05877,0.02007 0.09457,0.0422 0.109375,0.05664 0.0148,0.01444 0.01367,0.01537 0.01367,0.02539 0,0.0051 -0.01154,0.04343 -0.08594,0.103516 -0.367277,0.281067 -0.775525,0.448266 -1.230469,0.503906 h -0.002 c -0.248506,0.03694 -0.500039,0.05469 -0.751953,0.05469 -0.31328,0 -0.628178,-0.02557 -0.945312,-0.07617 h -0.002 -0.002 c -0.439932,-0.05705 -0.77715,-0.165999 -1.01537,-0.318714 -0.760392,-0.538074 -1.162109,-1.667179 -1.162109,-3.431641 0,-0.763233 0.07302,-1.728304 0.220703,-2.892578 v -0.002 c 0.03095,-0.271677 0.05793,-0.518385 0.08203,-0.742188 v -0.002 c 0.02678,-0.220281 0.07712,-0.480426 0.148438,-0.779297 v -0.002 c 0.03475,-0.156346 0.05699,-0.269867 0.06836,-0.345703 0.03327,-0.222895 0.08698,-0.439452 0.160157,-0.652344 0.06601,-0.192043 0.161492,-0.291068 0.302734,-0.339844 0.308299,-0.07223 0.616588,-0.11252 0.927734,-0.11914 h 0.002 l 0.113282,-0.0059 h 0.320312 0.002 c 0.221279,-0.01021 0.442372,-0.01559 0.660157,-0.01563 z m -0.326172,5.160157 c -0.0121,0.01694 0.0017,0.0095 0.002,0.0098 0.0026,-0.0059 0.01258,-0.0298 -0.0039,-0.0078 z"
           id="path32631" />
      </g>
      <g
         id="path32566">
        <path
           style="color:#000000;fill:#66c0f4;-inkscape-stroke:none"
           d="m 27.856969,34.677791 q -0.480589,0 -0.966346,-0.07751 -0.682127,-0.08785 -1.074866,-0.341064 -1.21956,-0.862993 -1.21956,-3.539824 0,-1.157548 0.222208,-2.909374 0.04651,-0.408242 0.08268,-0.744138 0.04134,-0.341063 0.149861,-0.795815 0.05168,-0.232543 0.06718,-0.335895 0.05168,-0.346231 0.165364,-0.676959 0.113688,-0.330729 0.387572,-0.423746 0.480589,-0.113688 0.966346,-0.124023 l 0.113688,-0.0052 h 0.320393 q 0.335896,-0.0155 0.666624,-0.0155 l 0.981849,0.01033 0.583942,-0.01033 q 0.268716,0 0.537433,0.07235 0.08785,0.03101 0.186034,0.170532 0.09819,0.139526 0.09819,0.289387 0,0.103353 -0.06718,0.180867 -0.113688,0.139526 -0.542601,0.139526 -0.361734,-0.0155 -0.682126,-0.02067 l -0.320393,-0.01034 q -0.320393,0 -0.527098,0.0155 -0.206705,0.01034 -0.41341,0.01034 l -0.160197,-0.0052 q 0.0052,0.03617 0.0052,0.206705 0.0052,0.170532 0.01034,0.41341 0.0052,0.237711 0.0052,0.459919 0,0.299722 -0.01034,0.459919 l -0.02584,0.444415 -0.07235,1.426265 0.0052,0.05684 q 0,0.03617 -0.02584,0.165364 0,0.03101 0.02584,0.03617 0.05168,0.02067 0.418578,0.03101 0.289387,0.01033 0.578774,0.04651 0.155029,0.02584 0.28422,0.10852 0.08268,0.07752 0.08268,0.186035 0,0.124023 -0.103353,0.201537 -0.175699,0.08268 -0.372069,0.08268 -0.403075,0.01034 -0.80615,0.01034 -0.08268,0 -0.10852,0.03617 -0.04651,0.06201 -0.04651,0.831988 l 0.0052,0.201537 q 0,0.496093 -0.06718,0.987017 -0.05168,0.294555 -0.05168,0.583942 0,0.480589 0.139526,0.785479 0.206705,0.671792 0.625282,0.671792 0.434081,0 0.873329,-0.232543 0.28422,-0.134359 0.583942,-0.134359 0.211873,0 0.423745,0.05684 0.03101,0.0052 0.05684,0.02067 0.211873,0.07235 0.211873,0.206705 0,0.09819 -0.134358,0.206705 -0.578774,0.444416 -1.297075,0.532265 -0.382404,0.05684 -0.769976,0.05684 z"
           id="path32635" />
        <path
           style="color:#000000;fill:#000000;-inkscape-stroke:none"
           d="m 27.738281,24.556641 c -0.222552,0 -0.4479,0.0052 -0.673828,0.01563 h -0.316406 l -0.117188,0.0059 c -0.331922,0.0073 -0.662272,0.04937 -0.990234,0.126953 l -0.0059,0.002 -0.0059,0.002 c -0.222518,0.07557 -0.385534,0.258095 -0.470703,0.50586 -0.0784,0.228078 -0.136239,0.460473 -0.171875,0.699218 -0.0093,0.06197 -0.03029,0.174414 -0.06445,0.328125 -0.07293,0.305856 -0.124031,0.575009 -0.152344,0.808594 -0.02408,0.223602 -0.05105,0.472202 -0.08203,0.744141 -0.1484,1.170452 -0.222656,2.144183 -0.222656,2.923828 0,1.804643 0.409704,3.035855 1.27539,3.648437 l 0.002,0.002 0.002,0.002 c 0.284247,0.183265 0.659829,0.29897 1.125,0.359375 0.330541,0.05274 0.660776,0.08008 0.988281,0.08008 h 0.03711 l 0.0059,-0.0039 c 0.248935,-0.002 0.496342,-0.01833 0.742187,-0.05469 0.501299,-0.06131 0.957851,-0.248781 1.361328,-0.558594 h 0.002 l 0.002,-0.002 c 0.104746,-0.0846 0.183594,-0.182793 0.183594,-0.308594 0,-0.07955 -0.03793,-0.160383 -0.09375,-0.214843 -0.05277,-0.05149 -0.120566,-0.08389 -0.197265,-0.111328 -0.02446,-0.01292 -0.04938,-0.02366 -0.07617,-0.0293 -6.35e-4,-1.71e-4 -0.0013,1.69e-4 -0.002,0 -0.151282,-0.04041 -0.304593,-0.0625 -0.457032,-0.0625 -0.219582,0 -0.434901,0.05119 -0.640625,0.148437 h -0.002 l -0.002,0.002 c -0.276906,0.146597 -0.546736,0.216797 -0.8125,0.216797 -0.104139,0 -0.183425,-0.03459 -0.267578,-0.125 -0.08415,-0.09041 -0.165258,-0.241189 -0.230469,-0.453125 l -0.002,-0.0078 -0.0039,-0.0078 c -0.08207,-0.179344 -0.128906,-0.422879 -0.128906,-0.730469 0,-0.185049 0.0176,-0.373393 0.05078,-0.5625 v -0.002 -0.002 c 0.0456,-0.333213 0.06836,-0.669159 0.06836,-1.005859 l -0.0039,-0.201172 v -0.002 -0.002 c 5.2e-5,-0.252842 0.0023,-0.448802 0.0098,-0.582032 0.0037,-0.06706 0.0088,-0.117253 0.01367,-0.15039 0.267898,-1.7e-5 0.536792,-0.0029 0.804688,-0.0098 0.14948,0 0.293421,-0.0325 0.427734,-0.0957 l 0.01367,-0.0059 0.0098,-0.0078 c 0.096,-0.072 0.15625,-0.187211 0.15625,-0.30664 0,-0.105942 -0.04741,-0.210457 -0.125,-0.283204 l -0.0078,-0.0078 -0.0098,-0.0059 c -0.101093,-0.0647 -0.21394,-0.108898 -0.333985,-0.128907 h -0.0039 -0.002 c -0.196773,-0.0246 -0.392988,-0.03985 -0.589844,-0.04687 h -0.002 c -0.121146,-0.0034 -0.215006,-0.0088 -0.28125,-0.01367 -0.01551,-0.0011 -0.0082,-1.01e-4 -0.02148,-0.002 0.004,-0.02611 0.01367,-0.06094 0.01367,-0.08594 v -0.0059 l -0.0059,-0.05273 0.07227,-1.416016 0.02539,-0.443359 v -0.002 c 0.0072,-0.111979 0.01172,-0.266299 0.01172,-0.466797 0,-0.14917 -0.0024,-0.303516 -0.0059,-0.462891 -0.0034,-0.160677 -0.0063,-0.296514 -0.0098,-0.410156 0,-0.03569 -0.0019,-0.04413 -0.002,-0.07031 h 0.02148 0.002 c 0.140009,0 0.279921,-0.0028 0.419921,-0.0098 h 0.002 0.002 c 0.13172,-0.0099 0.30438,-0.01555 0.513672,-0.01563 l 0.320312,0.0098 h 0.002 c 0.212265,0.0034 0.437619,0.0112 0.677735,0.02148 h 0.0039 0.002 c 0.299448,0 0.515177,-0.03245 0.642578,-0.1875 h 0.002 c 0.06279,-0.07341 0.09766,-0.168918 0.09766,-0.265625 0,-0.1288 -0.04476,-0.253987 -0.123046,-0.365234 -0.07349,-0.104429 -0.147297,-0.182497 -0.25,-0.21875 l -0.0039,-0.002 -0.0059,-0.002 c -0.189834,-0.05111 -0.379296,-0.07617 -0.570313,-0.07617 h -0.002 l -0.583984,0.0098 z m -0.002,0.263671 0.984375,0.01172 0.583984,-0.01172 c 0.163989,0 0.327082,0.02282 0.492188,0.06641 0.01443,0.0051 0.06562,0.03949 0.123047,0.121093 0.05263,0.07479 0.07422,0.141877 0.07422,0.212891 0,0.04024 -0.0094,0.06406 -0.03516,0.09375 l -0.002,0.002 -0.002,0.002 c -0.02433,0.02986 -0.167856,0.08984 -0.439453,0.08984 l 0.0059,0.002 c -0.241507,-0.01035 -0.469204,-0.01801 -0.683593,-0.02148 h -0.002 l -0.320312,-0.0098 h -0.002 c -0.215729,0 -0.394224,0.0049 -0.53711,0.01563 -0.133011,0.0066 -0.267386,0.0097 -0.40039,0.0098 l -0.316406,-0.0098 0.02148,0.15625 c -7.01e-4,-0.0049 0.0039,0.07515 0.0039,0.1875 v 0.002 0.002 c 0.0034,0.113103 0.0063,0.25048 0.0098,0.41211 0.0034,0.157573 0.0059,0.309925 0.0059,0.457031 0,0.198293 -0.0032,0.349666 -0.0098,0.451172 l -0.02539,0.445312 -0.07422,1.4375 0.0059,0.05664 c -3.45e-4,-0.0035 -0.0071,0.05518 -0.02344,0.136719 l -0.002,0.01172 v 0.01367 c 0,0.02871 0.0062,0.06643 0.03125,0.101563 0.02306,0.03229 0.06174,0.05009 0.09375,0.05859 0.05336,0.01861 0.08771,0.02046 0.154297,0.02539 0.07328,0.0054 0.169516,0.01019 0.292969,0.01367 0.18705,0.0067 0.373416,0.0217 0.560546,0.04492 0.08094,0.01349 0.153522,0.04343 0.220704,0.08398 0.0247,0.02567 0.03711,0.04546 0.03711,0.08008 0,0.04111 -0.01349,0.05991 -0.04492,0.08594 -0.09478,0.04191 -0.192723,0.06641 -0.298828,0.06641 h -0.002 -0.002 c -0.267587,0.0069 -0.535149,0.0098 -0.802735,0.0098 -0.07359,0 -0.156843,0.0137 -0.21289,0.08984 -0.04718,0.0629 -0.04008,0.08824 -0.04687,0.134765 -0.0068,0.04653 -0.01162,0.104179 -0.01563,0.175782 -0.008,0.143206 -0.01172,0.341618 -0.01172,0.599609 v 0.002 l 0.0059,0.203125 c -1.75e-4,0.323442 -0.02261,0.646732 -0.06641,0.966797 -0.03505,0.201659 -0.05273,0.402685 -0.05273,0.601562 0,0.332445 0.04887,0.610989 0.152343,0.837891 2.34e-4,5.12e-4 -2.34e-4,0.0014 0,0.002 0.07165,0.226619 0.162395,0.409268 0.283204,0.539063 0.124274,0.133518 0.286025,0.210937 0.460937,0.210937 0.311017,0 0.622837,-0.08467 0.929688,-0.246094 l 0.0059,-0.002 c 0.171288,-0.08002 0.343483,-0.11914 0.521484,-0.11914 0.129419,0 0.260037,0.0177 0.390625,0.05273 h 0.0059 l 0.0059,0.002 c 0.0055,9.19e-4 0.0089,0.0022 0.01172,0.0039 l 0.01172,0.0059 0.01367,0.0059 c 0.05877,0.02007 0.09457,0.0422 0.109375,0.05664 0.0148,0.01444 0.01172,0.01537 0.01172,0.02539 0,0.0051 -0.0096,0.04343 -0.08398,0.103516 -0.367668,0.28176 -0.774908,0.448191 -1.230469,0.503906 h -0.002 -0.002 c -0.248507,0.03694 -0.498086,0.05469 -0.75,0.05469 -0.31328,0 -0.628179,-0.02557 -0.945313,-0.07617 h -0.002 -0.002 c -0.439421,-0.05659 -0.777471,-0.166059 -1.015625,-0.318359 -0.760392,-0.538074 -1.164062,-1.667179 -1.164062,-3.431641 0,-0.763233 0.07302,-1.728304 0.220703,-2.892578 v -0.002 c 0.03095,-0.271678 0.05988,-0.518385 0.08398,-0.742188 v -0.002 c 0.02678,-0.220281 0.07516,-0.480427 0.146484,-0.779297 v -0.002 c 0.03475,-0.156346 0.05699,-0.269867 0.06836,-0.345703 0.03327,-0.222895 0.08698,-0.439452 0.160156,-0.652344 0.06602,-0.192043 0.161492,-0.291068 0.302734,-0.339844 0.308306,-0.07223 0.618535,-0.11252 0.929688,-0.11914 h 0.002 l 0.111328,-0.0059 h 0.320313 0.0039 c 0.221277,-0.01021 0.44042,-0.01559 0.658203,-0.01563 z m -0.326172,5.160157 h 0.002 c -0.01198,0.01677 -1.04e-4,0.0095 0,0.0098 0.0022,-0.0049 0.01388,-0.02893 -0.002,-0.0078 z"
           id="path32637" />
      </g>
      <g
         id="path32568">
        <path
           style="color:#000000;fill:#66c0f4;-inkscape-stroke:none"
           d="m 32.347636,34.672624 -0.222208,-0.0052 Q 31.551822,34.646785 31.045394,34.403907 30.05321,33.876809 30.05321,32.559064 l 0.0052,-0.180867 q 0.01033,-0.428913 0.222208,-0.682126 0.149861,-0.186035 0.382404,-0.222208 0.139526,-0.02584 0.279052,-0.02584 0.175699,0 0.351399,0.05684 0.155028,0.06201 0.155028,0.170532 0,0.04651 -0.03617,0.103353 -0.103353,0.170531 -0.103353,0.439248 l 0.0052,0.165364 q 0.02584,0.568439 0.191202,0.868161 0.03617,0.06201 0.06718,0.129191 0.07235,0.144693 0.170532,0.273884 0.09819,0.129191 0.268717,0.201538 0.04134,0.02067 0.08268,0.02067 0.05684,0 0.113687,-0.03617 0.382405,-0.201538 0.382405,-0.775144 0,-0.279052 -0.08268,-0.552936 -0.07751,-0.279052 -0.186035,-0.470254 -0.315225,-0.552937 -0.775144,-1.007688 -0.485757,-0.459918 -0.868161,-1.02319 -0.08268,-0.12919 -0.175699,-0.258381 -0.144694,-0.186035 -0.258382,-0.39274 -0.449583,-0.842323 -0.449583,-1.813837 0,-0.475421 0.165364,-0.91467 0.186034,-0.599444 0.573606,-1.085201 0.04134,-0.05684 0.09302,-0.09819 0.852658,-0.723468 1.886183,-0.723468 0.124023,0 0.253214,0.01034 l 0.08268,0.0052 q 0.299723,0.02067 0.604612,0.08785 0.671792,0.160196 0.98185,0.775144 0.103352,0.23771 0.103352,0.485756 0,0.19637 -0.04651,0.397908 -0.191202,0.909502 -0.837155,0.909502 -0.211873,0 -0.449584,-0.09819 -0.144693,-0.08268 -0.165364,-0.253214 -0.0155,-0.170531 -0.0155,-0.341063 v -0.07751 q 0,-0.434081 -0.170531,-0.69763 -0.03101,-0.04651 -0.05684,-0.09819 -0.294555,0.423746 -0.335896,0.909502 -0.03101,0.263549 -0.03101,0.521931 0,0.857826 0.366902,1.658808 0.335896,0.651121 0.847491,1.209225 0.320393,0.346231 0.573606,0.749306 0.568439,0.966346 0.568439,1.803501 0,0.894 -0.645953,1.441768 -0.640786,0.547769 -1.793167,0.547769 z"
           id="path32641" />
        <path
           style="color:#000000;fill:#000000;-inkscape-stroke:none"
           d="m 32.513672,24.591797 c -0.718403,0 -1.381109,0.256563 -1.96875,0.753906 -0.04411,0.03529 -0.08318,0.07629 -0.117188,0.123047 -0.265818,0.334024 -0.463451,0.706142 -0.591797,1.117187 -4.55e-4,0.0012 4.54e-4,0.0027 0,0.0039 -2.67e-4,8.58e-4 -0.0017,0.0011 -0.002,0.002 -0.114344,0.305808 -0.171875,0.624873 -0.171875,0.955078 0,0.668082 0.155174,1.294813 0.464844,1.875 l 0.002,0.002 c 0.07914,0.143885 0.1688,0.280644 0.269531,0.410156 0.05945,0.08274 0.115156,0.165525 0.167969,0.248047 l 0.002,0.002 v 0.002 c 0.260159,0.383208 0.555887,0.731689 0.886719,1.044922 0.297423,0.294427 0.548238,0.619225 0.751953,0.976563 0.06539,0.115198 0.124331,0.263205 0.173828,0.441406 v 0.002 c 0.05153,0.170689 0.07813,0.342656 0.07813,0.515625 0,0.353006 -0.103359,0.546027 -0.3125,0.65625 l -0.0039,0.0039 -0.0059,0.002 c -0.02105,0.01339 -0.03314,0.01563 -0.04297,0.01563 -0.0055,0 -0.01165,3.2e-5 -0.02344,-0.0059 l -0.0039,-0.002 -0.002,-0.002 c -0.09603,-0.04074 -0.166463,-0.09393 -0.216797,-0.160156 -0.05964,-0.07848 -0.110152,-0.160358 -0.154297,-0.248047 l -0.002,-0.0039 c -0.0215,-0.04627 -0.04523,-0.09161 -0.07031,-0.134766 -0.09434,-0.170999 -0.156958,-0.442655 -0.173828,-0.808594 v -0.002 l -0.0059,-0.158203 c 0,-0.162184 0.03105,-0.283747 0.08398,-0.371094 l -0.002,0.002 c 0.03289,-0.05168 0.05664,-0.108528 0.05664,-0.173828 0,-0.06767 -0.02764,-0.136454 -0.07227,-0.185547 -0.04463,-0.04909 -0.101985,-0.08181 -0.166015,-0.107422 l -0.0039,-0.002 -0.0039,-0.002 c -0.12942,-0.04187 -0.261179,-0.0625 -0.392578,-0.0625 -0.09989,0 -0.199327,0.0092 -0.298828,0.02734 -0.183881,0.0286 -0.344795,0.122032 -0.462891,0.267578 -0.164164,0.196191 -0.24651,0.456592 -0.253906,0.763672 l -0.0039,0.181641 v 0.002 c 0,0.911698 0.358755,1.590063 1.060547,1.96289 h 0.0039 l 0.002,0.002 c 0.353861,0.169709 0.733172,0.261012 1.132813,0.275391 l 0.203125,0.0059 h 0.01953 0.0039 c 0.789214,0 1.421943,-0.189447 1.878906,-0.580078 0.456761,-0.388022 0.69336,-0.913815 0.69336,-1.541015 0,-0.588046 -0.200467,-1.212474 -0.587891,-1.871094 v -0.002 l -0.002,-0.002 C 34.156976,30.533043 33.961364,30.277868 33.742187,30.041016 33.409955,29.67858 33.136018,29.286855 32.917969,28.865234 32.680814,28.347504 32.5625,27.814741 32.5625,27.261719 c 0,-0.166962 0.01116,-0.335144 0.03125,-0.50586 v -0.002 -0.002 c 0.01631,-0.191625 0.119055,-0.362877 0.199219,-0.539062 0.04346,0.124295 0.09961,0.234354 0.09961,0.414062 v 0.07813 c 0,0.117696 0.0049,0.233916 0.01563,0.351563 v 0.002 0.002 c 0.01791,0.147759 0.104299,0.280304 0.232422,0.353515 l 0.0059,0.0039 0.0078,0.002 c 0.171292,0.07076 0.338315,0.109375 0.5,0.109375 0.246362,0 0.468369,-0.093 0.630859,-0.269531 0.16249,-0.176533 0.269119,-0.428251 0.335938,-0.746094 0.03253,-0.142225 0.05078,-0.283744 0.05078,-0.423828 0,-0.183738 -0.03962,-0.365159 -0.115234,-0.539063 l -0.002,-0.0039 -0.002,-0.0039 c -0.221918,-0.440138 -0.587813,-0.729159 -1.068359,-0.84375 h -0.002 c -0.209371,-0.04613 -0.418443,-0.0756 -0.625,-0.08984 l -0.08008,-0.0059 h -0.002 c -0.0888,-0.0071 -0.175999,-0.01172 -0.261719,-0.01172 z m 0,0.265625 c 0.07901,0 0.159416,0.0031 0.242187,0.0098 h 0.002 l 0.08203,0.0059 c 0.192442,0.01327 0.387495,0.04078 0.583984,0.08398 0.415176,0.099 0.701086,0.325286 0.892578,0.705078 0.06046,0.141062 0.08984,0.28278 0.08984,0.427735 0,0.120469 -0.01408,0.242002 -0.04297,0.367187 v 0.002 c -0.06065,0.288492 -0.156876,0.49446 -0.273437,0.621094 -0.116561,0.126635 -0.251274,0.183594 -0.435547,0.183594 -0.117299,0 -0.246034,-0.02933 -0.386719,-0.08594 -0.05943,-0.03571 -0.08642,-0.07187 -0.0957,-0.148437 -0.0097,-0.108424 -0.01563,-0.215842 -0.01563,-0.324219 v -0.07813 c 0,-0.306711 -0.05972,-0.56602 -0.191406,-0.769531 v -0.002 c -0.01753,-0.0263 -0.03398,-0.05427 -0.04883,-0.08398 l -0.09961,-0.199218 -0.126953,0.183593 c -0.208236,0.299569 -0.329839,0.625606 -0.359375,0.972657 -0.02095,0.17935 -0.03125,0.356943 -0.03125,0.533203 0,0.590744 0.126859,1.164599 0.378906,1.714843 v 0.002 l 0.002,0.0039 c 0.229416,0.444713 0.518554,0.856 0.867188,1.236328 v 0.002 c 0.207393,0.224118 0.392488,0.465573 0.556641,0.726563 0.370494,0.62984 0.550781,1.208167 0.550781,1.736328 0,0.564137 -0.196051,0.997626 -0.59961,1.339843 -0.396584,0.339016 -0.958171,0.516841 -1.703125,0.517579 l -0.220703,-0.0059 h -0.002 c -0.362954,-0.01331 -0.701821,-0.09538 -1.021484,-0.248047 l -0.0039,-0.002 C 30.486213,33.955522 30.186603,33.40345 30.185547,32.5625 v -0.0039 l 0.0059,-0.177735 c 0.0064,-0.264803 0.07307,-0.458183 0.191406,-0.599609 v -0.002 c 0.08156,-0.101253 0.175523,-0.154344 0.300782,-0.173828 l 0.002,-0.002 h 0.002 c 0.08525,-0.01579 0.169056,-0.02344 0.253906,-0.02344 0.102237,0 0.204413,0.01728 0.308594,0.05078 6.42e-4,2.07e-4 0.0013,-2.07e-4 0.002,0 0.03153,0.01403 0.05427,0.0302 0.06055,0.03711 0.007,0.0078 0.0039,0.0031 0.0039,0.0078 0,-0.0033 -2.85e-4,0.0071 -0.01563,0.03125 v 0.002 l -0.002,0.002 c -0.08487,0.140028 -0.123047,0.311708 -0.123047,0.507813 v 0.002 l 0.0059,0.167969 c 0.01776,0.390694 0.08111,0.697546 0.207031,0.925781 l 0.002,0.002 v 0.002 c 0.02193,0.03759 0.04354,0.07611 0.0625,0.117188 v 0.002 l 0.002,0.002 c 0.05189,0.103785 0.113215,0.202315 0.183594,0.294922 0.07973,0.104903 0.18885,0.186514 0.318359,0.242187 0.04238,0.02053 0.08857,0.0332 0.136719,0.0332 0.06239,0 0.123067,-0.02112 0.175781,-0.05273 5.24e-4,-2.76e-4 -5.23e-4,-0.0017 0,-0.002 0.299692,-0.158786 0.453125,-0.477587 0.453125,-0.888672 0,-0.198457 -0.02956,-0.395963 -0.08789,-0.589844 v -0.002 c -0.05374,-0.193028 -0.11822,-0.358782 -0.197266,-0.498047 -0.216132,-0.379117 -0.481945,-0.723765 -0.796875,-1.035156 l -0.002,-0.002 h -0.002 c -0.31618,-0.299361 -0.598327,-0.633093 -0.847657,-1 l -0.002,-0.002 c -0.05605,-0.08748 -0.114902,-0.174454 -0.177734,-0.261719 v -0.002 l -0.002,-0.002 c -0.09186,-0.118103 -0.173839,-0.241853 -0.246094,-0.373047 v -0.002 c -0.289163,-0.54242 -0.433594,-1.12339 -0.433594,-1.75 0,-0.301609 0.05155,-0.591037 0.15625,-0.869141 l 0.002,-0.0039 v -0.002 c 0.119313,-0.384452 0.302511,-0.731802 0.550782,-1.042969 l 0.002,-0.002 0.002,-0.002 c 0.02111,-0.02903 0.04356,-0.05438 0.06836,-0.07422 h 0.002 l 0.002,-0.002 c 0.548331,-0.465251 1.142633,-0.691406 1.800781,-0.691406 z"
           id="path32643" />
      </g>
      <g
         id="path32570">
        <path
           style="color:#000000;fill:#1b2838;-inkscape-stroke:none"
           d="m 41.060254,34.677791 q -0.480589,0 -0.966346,-0.07751 -0.682127,-0.08785 -1.074866,-0.341064 -1.21956,-0.862993 -1.21956,-3.539824 0,-1.157548 0.222208,-2.909374 0.04651,-0.408242 0.08268,-0.744138 0.04134,-0.341063 0.149861,-0.795815 0.05168,-0.232543 0.06718,-0.335895 0.05168,-0.346231 0.165364,-0.676959 0.113688,-0.330729 0.387572,-0.423746 0.480589,-0.113688 0.966346,-0.124023 l 0.113688,-0.0052 h 0.320393 q 0.335896,-0.0155 0.666624,-0.0155 l 0.981849,0.01033 0.583942,-0.01033 q 0.268716,0 0.537433,0.07235 0.08785,0.03101 0.186035,0.170532 0.09818,0.139526 0.09818,0.289387 0,0.103353 -0.06718,0.180867 -0.113687,0.139526 -0.542601,0.139526 -0.361733,-0.0155 -0.682126,-0.02067 l -0.320393,-0.01034 q -0.320393,0 -0.527098,0.0155 -0.206705,0.01034 -0.41341,0.01034 l -0.160197,-0.0052 q 0.0052,0.03617 0.0052,0.206705 0.0052,0.170532 0.01033,0.41341 0.0052,0.237711 0.0052,0.459919 0,0.299722 -0.01033,0.459919 l -0.02584,0.444415 -0.07235,1.426265 0.0052,0.05684 q 0,0.03617 -0.02584,0.165364 0,0.03101 0.02584,0.03617 0.05168,0.02067 0.418578,0.03101 0.289387,0.01033 0.578774,0.04651 0.155029,0.02584 0.28422,0.10852 0.08268,0.07752 0.08268,0.186035 0,0.124023 -0.103353,0.201537 -0.175699,0.08268 -0.372069,0.08268 -0.403075,0.01034 -0.80615,0.01034 -0.08268,0 -0.10852,0.03617 -0.04651,0.06201 -0.04651,0.831988 l 0.0052,0.201537 q 0,0.496093 -0.06718,0.987017 -0.05168,0.294555 -0.05168,0.583942 0,0.480589 0.139526,0.785479 0.206705,0.671792 0.625283,0.671792 0.43408,0 0.873328,-0.232543 0.28422,-0.134359 0.583942,-0.134359 0.211873,0 0.423746,0.05684 0.03101,0.0052 0.05684,0.02067 0.211872,0.07235 0.211872,0.206705 0,0.09819 -0.134358,0.206705 -0.578774,0.444416 -1.297074,0.532265 -0.382405,0.05684 -0.769977,0.05684 z"
           id="path32647" />
        <path
           style="color:#000000;fill:#000000;-inkscape-stroke:none"
           d="m 40.941406,24.556641 c -0.222552,0 -0.445947,0.0052 -0.671875,0.01563 h -0.318359 l -0.117188,0.0059 c -0.331922,0.0073 -0.662272,0.04937 -0.990234,0.126953 l -0.0059,0.002 -0.0059,0.002 c -0.222518,0.07557 -0.385534,0.258095 -0.470703,0.50586 -0.0784,0.228078 -0.134285,0.460473 -0.169922,0.699218 -0.0093,0.06197 -0.03225,0.174414 -0.06641,0.328125 -0.07293,0.305856 -0.124031,0.575009 -0.152344,0.808594 -0.02408,0.223602 -0.05105,0.472202 -0.08203,0.744141 -0.1484,1.170452 -0.222656,2.144183 -0.222656,2.923828 0,1.804643 0.409704,3.035855 1.27539,3.648437 l 0.002,0.002 0.002,0.002 c 0.284247,0.183265 0.659829,0.29897 1.125,0.359375 0.330541,0.05274 0.660776,0.08008 0.988281,0.08008 h 0.03906 l 0.0059,-0.0039 c 0.248276,-0.0021 0.495032,-0.01842 0.740234,-0.05469 0.501299,-0.06131 0.957851,-0.248781 1.361328,-0.558594 h 0.002 l 0.002,-0.002 c 0.104746,-0.0846 0.183594,-0.182793 0.183594,-0.308594 0,-0.07955 -0.03793,-0.160383 -0.09375,-0.214843 -0.05277,-0.05149 -0.120566,-0.08389 -0.197265,-0.111328 -0.02446,-0.01292 -0.04938,-0.02366 -0.07617,-0.0293 -6.35e-4,-1.71e-4 -0.0013,1.69e-4 -0.002,0 -0.151283,-0.04041 -0.304593,-0.0625 -0.457032,-0.0625 -0.219582,0 -0.432948,0.05119 -0.638672,0.148437 h -0.0039 l -0.002,0.002 c -0.276906,0.146597 -0.546737,0.216797 -0.8125,0.216797 -0.104139,0 -0.183425,-0.03459 -0.267578,-0.125 -0.08415,-0.09041 -0.165258,-0.241189 -0.230469,-0.453125 l -0.002,-0.0078 -0.0039,-0.0078 c -0.08207,-0.179344 -0.126953,-0.422879 -0.126953,-0.730469 0,-0.185049 0.01565,-0.373393 0.04883,-0.5625 v -0.002 -0.002 c 0.0456,-0.333213 0.06836,-0.669159 0.06836,-1.005859 l -0.0039,-0.201172 v -0.002 -0.002 c 5.2e-5,-0.252842 0.0043,-0.448802 0.01172,-0.582032 0.0037,-0.06706 0.0069,-0.117253 0.01172,-0.15039 0.267898,-1.7e-5 0.536792,-0.0029 0.804688,-0.0098 0.14948,0 0.293421,-0.0325 0.427734,-0.0957 l 0.01367,-0.0059 0.0098,-0.0078 c 0.096,-0.072 0.15625,-0.187211 0.15625,-0.30664 0,-0.105942 -0.04546,-0.210457 -0.123047,-0.283204 l -0.0098,-0.0078 -0.0098,-0.0059 c -0.101093,-0.0647 -0.21394,-0.108898 -0.333985,-0.128907 h -0.0039 -0.002 c -0.196773,-0.0246 -0.392988,-0.03985 -0.589844,-0.04687 h -0.002 c -0.121146,-0.0034 -0.215006,-0.0088 -0.28125,-0.01367 -0.01551,-0.0011 -0.0082,-1.01e-4 -0.02148,-0.002 0.004,-0.02611 0.01367,-0.06094 0.01367,-0.08594 v -0.0059 l -0.0059,-0.05273 0.07227,-1.416016 0.02539,-0.443359 v -0.002 c 0.0072,-0.111974 0.01172,-0.266301 0.01172,-0.466797 0,-0.14917 -0.0024,-0.303516 -0.0059,-0.462891 -0.0034,-0.160679 -0.0063,-0.296511 -0.0098,-0.410156 0,-0.03569 -0.0019,-0.04413 -0.002,-0.07031 h 0.02148 0.002 c 0.140009,0 0.279921,-0.0028 0.419921,-0.0098 h 0.002 0.002 c 0.13172,-0.0099 0.30438,-0.01555 0.513672,-0.01563 l 0.320312,0.0098 h 0.002 c 0.212266,0.0034 0.43762,0.0112 0.677735,0.02148 h 0.0039 0.002 c 0.299448,0 0.515177,-0.03245 0.642578,-0.1875 h 0.002 c 0.06279,-0.07341 0.09766,-0.168918 0.09766,-0.265625 0,-0.128797 -0.04476,-0.253987 -0.123046,-0.365234 -0.07349,-0.104429 -0.147297,-0.182497 -0.25,-0.21875 l -0.0039,-0.002 -0.0059,-0.002 c -0.189834,-0.05111 -0.379296,-0.07617 -0.570313,-0.07617 h -0.002 l -0.583984,0.0098 z m -0.002,0.263671 0.984375,0.01172 0.583984,-0.01172 c 0.163989,0 0.327082,0.02282 0.492188,0.06641 0.01443,0.0051 0.06562,0.03949 0.123047,0.121093 0.05262,0.07479 0.07422,0.141874 0.07422,0.212891 0,0.04024 -0.0094,0.06406 -0.03516,0.09375 l -0.002,0.002 -0.002,0.002 c -0.02433,0.02986 -0.167855,0.08984 -0.439453,0.08984 l 0.0059,0.002 c -0.241506,-0.01035 -0.469203,-0.01801 -0.683593,-0.02148 h -0.002 l -0.320312,-0.0098 h -0.002 c -0.215729,0 -0.394224,0.0049 -0.53711,0.01563 -0.132363,0.0066 -0.266082,0.0097 -0.398437,0.0098 l -0.318359,-0.0098 0.02148,0.15625 c -7.01e-4,-0.0049 0.0039,0.07515 0.0039,0.1875 v 0.002 0.002 c 0.0034,0.113101 0.0083,0.250481 0.01172,0.41211 0.0034,0.157573 0.0039,0.309925 0.0039,0.457031 0,0.198295 -0.0032,0.349661 -0.0098,0.451172 l -0.02539,0.445312 -0.07422,1.4375 0.0059,0.05273 c 0,-0.0074 -0.0067,0.05682 -0.02344,0.140625 l -0.002,0.01172 v 0.01367 c 0,0.02871 0.0062,0.06643 0.03125,0.101563 0.02307,0.03229 0.06174,0.05009 0.09375,0.05859 0.05336,0.01861 0.08772,0.02046 0.154297,0.02539 0.07328,0.0054 0.169516,0.01019 0.292969,0.01367 0.187697,0.0067 0.37472,0.02156 0.5625,0.04492 0.0809,0.01348 0.151597,0.04346 0.21875,0.08398 0.0247,0.02567 0.03711,0.04546 0.03711,0.08008 0,0.04111 -0.01349,0.05991 -0.04492,0.08594 -0.09478,0.04191 -0.192723,0.06641 -0.298828,0.06641 h -0.002 -0.002 c -0.267587,0.0069 -0.535149,0.0098 -0.802735,0.0098 -0.07359,0 -0.156843,0.0137 -0.21289,0.08984 -0.04718,0.0629 -0.04008,0.08824 -0.04687,0.134765 -0.0068,0.04653 -0.01162,0.104179 -0.01563,0.175782 -0.008,0.143206 -0.01172,0.341618 -0.01172,0.599609 v 0.002 l 0.0059,0.203125 c -1.75e-4,0.323442 -0.02261,0.646732 -0.06641,0.966797 l 0.002,-0.0059 c -0.03573,0.203633 -0.05469,0.406622 -0.05469,0.607421 0,0.332445 0.04887,0.610989 0.152343,0.837891 2.34e-4,5.12e-4 -2.34e-4,0.0014 0,0.002 0.07165,0.226619 0.162395,0.409268 0.283204,0.539063 0.124274,0.133518 0.286025,0.210937 0.460937,0.210937 0.311016,0 0.622837,-0.08467 0.929688,-0.246094 l 0.0059,-0.002 c 0.171288,-0.08002 0.343483,-0.11914 0.521484,-0.11914 0.129419,0 0.260036,0.0177 0.390625,0.05273 h 0.0059 l 0.0059,0.002 c 0.0055,9.19e-4 0.0089,0.0022 0.01172,0.0039 l 0.01172,0.0059 0.01367,0.0059 c 0.05877,0.02007 0.09457,0.0422 0.109375,0.05664 0.0148,0.01444 0.01172,0.01537 0.01172,0.02539 0,0.0051 -0.0096,0.04343 -0.08398,0.103516 -0.367668,0.28176 -0.774908,0.448191 -1.230469,0.503906 h -0.002 -0.002 c -0.248508,0.03694 -0.498086,0.05469 -0.75,0.05469 -0.31328,0 -0.628179,-0.02557 -0.945313,-0.07617 h -0.002 -0.002 c -0.439421,-0.05659 -0.777471,-0.166059 -1.015625,-0.318359 -0.760392,-0.538074 -1.164062,-1.667179 -1.164062,-3.431641 0,-0.763233 0.07302,-1.728304 0.220703,-2.892578 v -0.002 c 0.03095,-0.271678 0.05988,-0.518385 0.08398,-0.742188 v -0.002 c 0.02678,-0.220281 0.07516,-0.480427 0.146484,-0.779297 v -0.002 c 0.03475,-0.156346 0.05894,-0.269867 0.07031,-0.345703 0.03327,-0.222895 0.08502,-0.439452 0.158203,-0.652344 0.06602,-0.192043 0.161492,-0.291068 0.302734,-0.339844 0.308306,-0.07223 0.618535,-0.11252 0.929688,-0.11914 h 0.002 l 0.111328,-0.0059 h 0.320313 0.0039 c 0.221277,-0.01021 0.44042,-0.01559 0.658203,-0.01563 z m -0.326172,5.160157 h 0.002 c -0.01198,0.01677 -1.04e-4,0.0095 0,0.0098 0.0022,-0.0049 0.01388,-0.02893 -0.002,-0.0078 z"
           id="path32649" />
      </g>
      <g
         id="path32572">
        <path
           style="color:#000000;fill:#1b2838;-inkscape-stroke:none"
           d="m 45.659444,30.636707 q 0.02067,0 0.03101,-0.01034 0.0155,-0.0155 0.02067,-0.03101 0.118856,-0.170532 0.258382,-0.315225 0.09302,-0.09819 0.180867,-0.206705 0.573606,-0.749306 0.754473,-1.689814 0.05168,-0.237711 0.05168,-0.475422 0,-0.242878 -0.06718,-0.485757 -0.10852,-0.387572 -0.279052,-0.754473 -0.170531,-0.372069 -0.428913,-0.69763 -0.02584,-0.03617 -0.05684,-0.07235 -0.08268,-0.113687 -0.180867,-0.211872 -0.09302,-0.09819 -0.232543,-0.144694 -0.10852,1.653641 -0.10852,3.317616 0,0.883665 0.04651,1.777664 z m 2.227247,4.035917 q -0.227375,0 -0.568439,-0.30489 -0.341063,-0.310058 -0.754473,-0.826821 -0.41341,-0.52193 -0.857826,-1.173051 0,-0.0052 -0.0052,-0.0052 -0.0052,-0.0155 -0.02067,-0.03101 -0.01034,-0.0155 -0.03617,-0.02067 v 0.03617 q 0,0.310057 -0.05168,0.857826 -0.05168,0.5426 -0.113688,0.852658 -0.103352,0.459919 -0.573607,0.573607 -0.175699,0.03617 -0.346231,0.03617 -0.242878,0 -0.485756,-0.07751 -0.180867,-0.05168 -0.237711,-0.237711 -0.1757,-0.604613 -0.346231,-2.206577 -0.170532,-1.607132 -0.170532,-3.317616 0,-1.049029 0.09819,-1.958531 0.09819,-0.91467 0.330728,-1.488276 0.232543,-0.573607 0.630451,-0.640786 0.341063,-0.04651 0.682126,-0.04651 0.449584,0 0.888832,0.09302 0.439248,0.09302 0.868161,0.30489 0.635618,0.299722 1.038693,0.899167 0.186035,0.268716 0.335896,0.552936 0.175699,0.366901 0.21704,0.749306 0.05684,0.356566 0.05684,0.713132 0,0.222208 -0.02584,0.444416 -0.09302,0.759641 -0.50126,1.395259 -0.06718,0.103353 -0.12919,0.211873 -0.06718,0.129191 -0.149861,0.253214 -0.211873,0.320392 -0.475422,0.589109 -0.263549,0.268717 -0.60978,0.459919 -0.07235,0.03617 -0.07235,0.07751 0,0.03101 0.05168,0.08268 0.289388,0.325561 0.496093,0.702797 0.113687,0.191203 0.232543,0.37207 0.160196,0.232543 0.310057,0.470254 0.253214,0.392739 0.532266,0.775144 0.155029,0.201537 0.341063,0.372069 0.07235,0.07235 0.07235,0.144693 0,0.09302 -0.09819,0.170532 -0.222208,0.134358 -0.485757,0.134358 z"
           id="path32653" />
        <path
           style="color:#000000;fill:#000000;-inkscape-stroke:none"
           d="m 45.060547,24.5625 c -0.233389,0 -0.467947,0.01507 -0.701172,0.04687 h -0.002 -0.002 c -0.322045,0.05437 -0.566246,0.317571 -0.730469,0.722656 -0.161788,0.399085 -0.273514,0.905557 -0.339844,1.523438 -0.06604,0.61173 -0.09961,1.269177 -0.09961,1.972656 0,1.144718 0.05767,2.255714 0.171875,3.332031 0.114008,1.070989 0.228893,1.806389 0.351562,2.228516 v 0.002 c 0.04836,0.158247 0.170749,0.281204 0.328125,0.326172 0.172849,0.05476 0.346771,0.08203 0.521485,0.08203 0.123041,0 0.247635,-0.01129 0.373047,-0.03711 l 0.002,-0.002 h 0.002 c 0.350957,-0.08485 0.594074,-0.327615 0.671875,-0.673829 v -0.002 c 0.04286,-0.214326 0.08249,-0.50285 0.117187,-0.867187 0.02213,-0.234561 0.02512,-0.383252 0.0332,-0.554688 0.239513,0.342434 0.476761,0.675153 0.703125,0.960938 0.27863,0.348288 0.532821,0.628381 0.767579,0.841797 l 0.002,0.002 c 0.238266,0.212995 0.445536,0.33789 0.65625,0.33789 h 0.0098 l 0.0098,-0.002 0.04687,-0.0078 c 0.19818,0 0.386732,-0.05274 0.554687,-0.154297 l 0.0078,-0.0039 0.0059,-0.0059 c 0.08566,-0.06762 0.148438,-0.164876 0.148438,-0.273437 0,-0.09233 -0.04751,-0.174459 -0.111328,-0.238281 l -0.002,-0.002 -0.002,-0.002 C 48.437027,34.00717 48.328811,33.889082 48.230511,33.76155 l -0.002,-0.002 c -0.183966,-0.25219 -0.358467,-0.506723 -0.525391,-0.765625 -0.1001,-0.15878 -0.203611,-0.315371 -0.310547,-0.470704 l -0.002,-0.0039 C 47.31411,32.402978 47.23935,32.283369 47.166016,32.160156 l -0.002,-0.0039 c -0.13767,-0.250595 -0.305681,-0.48392 -0.496093,-0.701172 0.228032,-0.129654 0.432764,-0.282816 0.609375,-0.462891 0.181694,-0.185256 0.346404,-0.38697 0.492187,-0.607421 0.05689,-0.08534 0.107771,-0.172589 0.154297,-0.261719 l 0.002,-0.0039 c 0.03944,-0.06885 0.08044,-0.135625 0.123047,-0.201172 0.282641,-0.440064 0.457174,-0.925989 0.521484,-1.451172 0.01781,-0.153164 0.02734,-0.307671 0.02734,-0.460938 0,-0.244093 -0.01983,-0.488586 -0.05859,-0.732422 -0.02972,-0.268248 -0.106316,-0.531928 -0.228515,-0.787109 v -0.002 l -0.002,-0.002 c -0.102161,-0.193753 -0.217147,-0.381466 -0.34375,-0.564453 -0.2807,-0.417451 -0.645698,-0.735583 -1.089844,-0.945313 h -0.002 c -0.294574,-0.145345 -0.592864,-0.250155 -0.896485,-0.314453 -0.301781,-0.06391 -0.607169,-0.0957 -0.916015,-0.0957 z m 0,0.263672 c 0.290598,0 0.577446,0.02973 0.861328,0.08984 0.281454,0.0596 0.559181,0.158212 0.835937,0.294921 h 0.002 c 0.402729,0.189905 0.729882,0.472135 0.986328,0.853516 v 0.002 c 0.121061,0.174866 0.230729,0.354345 0.328125,0.539063 0.109991,0.230771 0.177382,0.463052 0.203125,0.701172 v 0.0039 0.0039 c 0.03681,0.230941 0.05664,0.460725 0.05664,0.691406 0,0.143011 -0.0087,0.286575 -0.02539,0.429688 -0.05972,0.48767 -0.220743,0.932417 -0.482422,1.339844 -0.04566,0.07034 -0.09068,0.143069 -0.132813,0.216796 v 0.002 l -0.002,0.002 c -0.04253,0.08179 -0.09004,0.163386 -0.142578,0.242187 -0.136714,0.206738 -0.28928,0.395328 -0.458984,0.56836 -0.166404,0.169667 -0.359782,0.315843 -0.580078,0.4375 l 0.0059,-0.002 c -0.03313,0.01656 -0.06373,0.03438 -0.0918,0.06445 -0.02807,0.03007 -0.05469,0.07849 -0.05469,0.130859 0,0.09083 0.04355,0.127975 0.08594,0.169922 0.0012,0.0014 0.0027,0.0025 0.0039,0.0039 3.87e-4,3.85e-4 -3.86e-4,0.0016 0,0.002 0.184428,0.208263 0.342728,0.433145 0.47461,0.673828 l 0.002,0.002 v 0.002 c 0.07678,0.129125 0.155972,0.254673 0.236328,0.376953 v 0.002 h 0.002 c 0.105784,0.153557 0.207696,0.309849 0.306641,0.466797 0.170206,0.263992 0.349594,0.524284 0.537109,0.78125 v 0.002 l 0.002,0.002 c 0.10795,0.140335 0.227757,0.269812 0.357422,0.388672 l -0.0059,-0.0039 c 0.03264,0.03264 0.03516,0.04665 0.03516,0.05078 0,0.01363 -0.01149,0.03107 -0.04297,0.05859 -0.126214,0.07469 -0.259783,0.113281 -0.410156,0.113281 h -0.0098 l -0.06055,0.0098 c -0.09267,-0.0012 -0.260777,-0.07884 -0.474609,-0.269531 -0.219993,-0.199994 -0.467651,-0.469818 -0.740234,-0.810547 -0.272493,-0.344022 -0.557716,-0.731755 -0.851563,-1.162109 -0.0083,-0.0134 -0.01736,-0.02712 -0.01758,-0.02734 -6e-5,-6e-5 -0.006,-0.0028 -0.0078,-0.0039 -0.0031,-0.004 -0.0046,-0.01 -0.0078,-0.01367 -0.03146,-0.04069 -0.07709,-0.06307 -0.113281,-0.07031 l -0.158203,-0.03125 v 0.197265 c 0,0.199355 -0.01655,0.482848 -0.05078,0.845703 -0.03413,0.358307 -0.07161,0.636935 -0.111328,0.835938 -0.06,0.267011 -0.200513,0.405919 -0.476562,0.472656 -0.106795,0.0216 -0.212007,0.0332 -0.314453,0.0332 -0.147846,0 -0.295562,-0.02252 -0.445313,-0.07031 l -0.002,-0.002 h -0.002 c -0.08323,-0.02378 -0.119109,-0.05994 -0.146484,-0.148438 C 43.851322,33.930781 43.734488,33.196172 43.621122,32.13121 43.507953,31.064687 43.4512,29.964401 43.4512,28.828476 c 0,-0.695224 0.03278,-1.344375 0.09766,-1.945313 0.06459,-0.601677 0.17205,-1.085449 0.320313,-1.451171 0.145833,-0.359724 0.322751,-0.525346 0.53125,-0.560547 0.220226,-0.02986 0.44009,-0.04492 0.660156,-0.04492 z m 0.529297,0.535156 -0.0098,0.171875 c -0.07254,1.10532 -0.109375,2.213981 -0.109375,3.326172 0,0.59143 0.01575,1.186899 0.04687,1.785156 l 0.0059,0.125 h 0.136719 c 0.03584,0 0.08499,-0.01077 0.123047,-0.04883 0.02073,-0.02073 0.04093,-0.04856 0.05273,-0.08398 l -0.01563,0.03516 c 0.07539,-0.108165 0.156121,-0.209501 0.244141,-0.300781 h 0.002 c 0.06445,-0.06803 0.126846,-0.139919 0.1875,-0.214844 v -0.002 h 0.002 c 0.393663,-0.514245 0.652762,-1.09787 0.777344,-1.742188 0.0364,-0.167419 0.05469,-0.335845 0.05469,-0.503906 0,-0.174116 -0.02251,-0.348645 -0.07031,-0.521484 -0.07411,-0.264682 -0.17079,-0.522942 -0.287109,-0.773438 v -0.002 C 46.613277,26.355669 46.466,26.115998 46.289154,25.89249 l -0.0039,-0.0039 c -0.01665,-0.02306 -0.0337,-0.04575 -0.05273,-0.06836 l -0.0078,-0.0078 c -0.05651,-0.07679 -0.118885,-0.149839 -0.185547,-0.216797 -0.07755,-0.08186 -0.17401,-0.142642 -0.285156,-0.179687 z m 0.246093,0.408203 c 0.0032,0.0032 0.0086,0.0045 0.01172,0.0078 l 0.002,0.002 c 0.06053,0.06053 0.116845,0.126969 0.167969,0.197265 l 0.0039,0.0039 0.002,0.0039 c 0.01831,0.02137 0.03597,0.04177 0.05078,0.0625 l 0.002,0.0039 0.002,0.002 c 0.165809,0.20892 0.302877,0.431596 0.412109,0.669922 v 0.002 c 0.110705,0.238182 0.201067,0.482883 0.271485,0.734375 0.04141,0.150348 0.0625,0.300134 0.0625,0.449219 0,0.148887 -0.01632,0.297737 -0.04883,0.447266 v 0.002 0.002 c -0.116911,0.607934 -0.360225,1.14916 -0.730469,1.632812 -0.05592,0.06896 -0.112917,0.135031 -0.171875,0.197266 -0.03614,0.03756 -0.06549,0.08307 -0.09961,0.123047 -0.02083,-0.486558 -0.03906,-0.971254 -0.03906,-1.453125 0,-1.03328 0.03863,-2.062588 0.101562,-3.089844 z"
           id="path32655" />
      </g>
      <g
         id="path32574">
        <path
           style="color:#000000;fill:#1b2838;-inkscape-stroke:none"
           d="m 51.679729,30.84858 q 0.723467,0 1.271236,-1.064531 0.372069,-0.614948 0.372069,-1.374589 0,-0.28422 -0.103353,-0.563271 -0.32556,-0.769977 -0.842323,-1.431433 -0.32556,-0.377237 -0.759641,-0.625283 -0.02584,-0.0155 -0.04134,-0.0155 -0.03101,0 -0.03101,0.05168 -0.0052,0.620115 -0.03101,1.24023 l -0.0052,0.253214 0.0052,0.449583 q 0,0.201538 -0.01033,0.408243 -0.0155,0.335895 -0.0155,0.785479 l 0.01034,0.532266 q 0.0155,0.248046 0.0155,0.501259 0,0.248046 -0.02584,0.50126 v 0.268717 q 0,0.07235 0.06201,0.07751 0.06201,0 0.129191,0.0052 z m -1.074867,3.839546 q -0.366901,0 -0.7183,-0.180866 -0.113688,-0.06718 -0.144694,-0.19637 -0.294554,-1.059364 -0.392739,-2.061883 -0.134358,-1.369421 -0.134358,-2.392612 l 0.0052,-0.289387 q 0.01033,-0.186034 0.01033,-0.635618 l -0.01033,-0.888832 q 0,-0.372069 0.0155,-0.744138 0.01033,-0.320393 0.01033,-0.640786 v -0.113687 q 0,-0.403075 0.03101,-0.800982 0.02584,-0.299723 0.134358,-0.568439 0.124023,-0.28422 0.444416,-0.387572 0.335896,-0.08785 0.671792,-0.08785 0.144693,0 0.294554,0.0155 0.847491,0.05168 1.550289,0.232543 0.837155,0.222208 1.493444,0.811317 1.007687,0.935341 1.271236,2.294427 0.05684,0.294554 0.05684,0.578774 0,0.470254 -0.149861,0.925005 -0.28422,0.728635 -0.883665,1.209225 -0.63045,0.516762 -1.4366,0.60978 -0.506427,0.07751 -1.012855,0.07751 h -0.170531 q -0.04651,0 -0.06201,0.02067 -0.01034,0.02067 -0.01034,0.403074 v 0.160197 q 0,0.279052 -0.02584,0.558104 l -0.02584,0.315225 q 0,0.180867 -0.0155,0.382404 l -0.03617,0.423746 q -0.0155,0.341063 -0.07751,0.682126 -0.07235,0.289387 -0.682127,0.289387 z"
           id="path32659" />
        <path
           style="color:#000000;fill:#000000;-inkscape-stroke:none"
           d="m 50.527344,24.566406 c -0.235464,0 -0.470704,0.0305 -0.705078,0.0918 l -0.0039,0.002 h -0.0039 c -0.242569,0.07825 -0.428359,0.238572 -0.525391,0.460938 v 0.002 0.002 c -0.07737,0.191599 -0.126233,0.395188 -0.144531,0.607422 -0.02094,0.268721 -0.03125,0.540391 -0.03125,0.8125 v 0.113281 c 0,0.212173 -0.0029,0.424543 -0.0098,0.636719 -0.01036,0.249227 -0.01563,0.498814 -0.01563,0.748047 l 0.0098,0.890625 c -2.2e-5,0.297241 -0.0032,0.509187 -0.0098,0.626953 v 0.002 l -0.0059,0.292969 c 0,0.687917 0.04488,1.490117 0.134766,2.40625 0.06621,0.676007 0.200497,1.369745 0.398437,2.082031 1.8e-4,6.45e-4 -1.79e-4,0.0013 0,0.002 0.02882,0.114921 0.101175,0.215147 0.203125,0.275391 l 0.0039,0.002 0.0039,0.002 c 0.250924,0.129151 0.512958,0.195312 0.779297,0.195312 0.213722,0 0.387561,-0.02273 0.527343,-0.08203 0.139783,-0.0593 0.248481,-0.167758 0.283204,-0.30664 v -0.0059 l 0.002,-0.0039 c 0.04203,-0.231173 0.06735,-0.461922 0.07813,-0.693359 v -0.0059 l 0.03711,-0.419922 c 0.01025,-0.13328 0.01532,-0.259835 0.01563,-0.380859 v -0.01172 l 0.02539,-0.302734 v -0.002 c 0.01748,-0.189417 0.02539,-0.378892 0.02539,-0.56836 v -0.160156 c 0,-0.126872 0.0022,-0.224028 0.0039,-0.289062 2.2e-5,-8.79e-4 -2.3e-5,-0.0011 0,-0.002 h 0.107421 c 0.343721,0 0.68776,-0.0276 1.03125,-0.08008 h 0.002 c 0.558095,-0.06557 1.061364,-0.279219 1.498046,-0.636718 0.417126,-0.33442 0.728438,-0.757755 0.925782,-1.263672 v -0.0039 l 0.002,-0.0039 c 0.10415,-0.316041 0.15625,-0.639241 0.15625,-0.966797 0,-0.198298 -0.0192,-0.399373 -0.05859,-0.603515 -0.180618,-0.931423 -0.621508,-1.723852 -1.3125,-2.365235 v -0.002 h -0.002 c -0.452181,-0.405894 -0.969039,-0.68842 -1.546875,-0.841797 h -0.002 c -0.476189,-0.122545 -0.99877,-0.199287 -1.56836,-0.234375 -0.104241,-0.01078 -0.207408,-0.01758 -0.308593,-0.01758 z m 0.07813,10.253906 h 0.01758 l 0.01758,-0.0039 z m -0.07813,-9.988281 c 0.09174,0 0.185676,0.0038 0.28125,0.01367 h 0.002 0.0039 c 0.557853,0.03402 1.066344,0.112334 1.525391,0.230469 0.537303,0.143046 1.015313,0.40228 1.4375,0.78125 0.651397,0.605377 1.059867,1.340933 1.230468,2.220703 0.03639,0.188596 0.05273,0.372073 0.05273,0.552734 0,0.297413 -0.04626,0.59054 -0.140625,0.878907 -0.181631,0.464896 -0.460085,0.846316 -0.841797,1.152343 l -0.002,0.002 c -0.401929,0.32945 -0.853566,0.520814 -1.367188,0.580079 h -0.0039 -0.002 c -0.331099,0.05068 -0.661318,0.07617 -0.992188,0.07617 h -0.169921 c -0.0506,1e-6 -0.119533,0.0096 -0.167969,0.07422 l -0.0078,0.0098 -0.0059,0.0098 c -2.15e-4,4.31e-4 -0.0062,0.01619 -0.0078,0.02148 -0.0017,0.0053 -0.0031,0.01007 -0.0039,0.01367 -0.0016,0.0072 -0.0012,0.01239 -0.002,0.01758 -0.0014,0.01037 -0.0031,0.02024 -0.0039,0.03125 -0.0015,0.02202 -0.003,0.04932 -0.0039,0.08398 -0.0018,0.06932 -0.002,0.166858 -0.002,0.294922 v 0.160156 c 0,0.181951 -0.0085,0.364872 -0.02539,0.546875 l -0.02734,0.320313 v 0.0059 c 0,0.116799 -0.0036,0.241706 -0.01367,0.373047 l -0.03711,0.423828 v 0.0039 c -0.0099,0.218736 -0.03476,0.437255 -0.07422,0.65625 -1.29e-4,7.18e-4 -0.0018,0.0012 -0.002,0.002 -0.01378,0.05268 -0.0407,0.08841 -0.126953,0.125 -0.08759,0.03716 -0.231033,0.0625 -0.423828,0.0625 -0.221621,0 -0.437905,-0.05723 -0.654297,-0.167969 -0.04529,-0.02776 -0.06717,-0.05558 -0.08008,-0.109375 l -0.002,-0.002 v -0.002 C 49.67464,33.57587 49.545115,32.8964 49.480469,32.236328 c -0.08911,-0.908272 -0.132668,-1.70134 -0.132813,-2.376953 v -0.0039 l 0.0039,-0.28125 v -0.0039 c 0.0071,-0.130118 0.01172,-0.339763 0.01172,-0.638671 v -0.002 l -0.01172,-0.888671 c 2.8e-5,-0.245558 0.0054,-0.490766 0.01563,-0.736329 v -0.002 c 0.0069,-0.215014 0.01172,-0.429514 0.01172,-0.644531 v -0.113281 c 0,-0.265324 0.0089,-0.529194 0.0293,-0.791016 0.0161,-0.186741 0.0581,-0.361171 0.125,-0.527344 0.06794,-0.155696 0.178606,-0.252842 0.361328,-0.3125 0.0011,-3.44e-4 8.95e-4,-0.0016 0.002,-0.002 0.21081,-0.05445 0.4211,-0.08008 0.63086,-0.08008 z m 1.048828,0.810547 c -0.04708,0 -0.11153,0.03419 -0.136719,0.07617 -0.02519,0.04198 -0.02734,0.07697 -0.02734,0.107422 -0.0035,0.411294 -0.01218,0.823078 -0.0293,1.234375 v 0.002 l -0.0059,0.255859 0.0059,0.451172 c 1e-6,0.132099 -0.0049,0.264728 -0.01172,0.400391 -0.01046,0.226645 -0.01563,0.491726 -0.01563,0.792969 L 51.367187,29.5 v 0.002 c 0.01016,0.162567 0.01563,0.328032 0.01563,0.494141 0,0.16077 -0.0086,0.323812 -0.02539,0.488281 l -0.002,0.0059 v 0.275391 c 0,0.04301 0.0095,0.0944 0.04492,0.138672 0.03542,0.04428 0.09254,0.06647 0.138671,0.07031 l 0.0059,0.002 h 0.0059 c 0.03764,0 0.07748,6.82e-4 0.119141,0.0039 h 0.0098 l 0.128907,0.01172 0.002,-0.0625 c 0.485914,-0.06332 0.912754,-0.4171 1.255859,-1.082031 0.259046,-0.42968 0.388672,-0.910988 0.388672,-1.4375 0,-0.205515 -0.03735,-0.409623 -0.111328,-0.609375 l -0.002,-0.0039 v -0.002 c -0.221526,-0.523927 -0.507833,-1.010964 -0.859375,-1.460938 l -0.002,-0.0039 -0.0039,-0.002 c -0.226064,-0.261948 -0.489919,-0.479933 -0.791015,-0.652344 -0.02723,-0.01634 -0.05494,-0.0332 -0.109375,-0.0332 z m 0.09766,0.361328 c 0.220623,0.142959 0.43073,0.297835 0.603516,0.498047 0.335475,0.4304 0.608677,0.895949 0.820312,1.396484 0.06233,0.170297 0.09375,0.34029 0.09375,0.511719 0,0.484828 -0.117959,0.915365 -0.353515,1.304688 l -0.002,0.0039 -0.002,0.0039 c -0.354337,0.688618 -0.736871,0.994141 -1.154297,0.994141 -0.02015,-0.0015 -0.03896,-0.0012 -0.05859,-0.002 v -0.205078 -0.01172 c 0.01687,-0.169139 0.02539,-0.335864 0.02539,-0.501953 0,-0.169539 -0.0054,-0.337639 -0.01563,-0.503907 v -0.0059 l -0.0098,-0.523437 v -0.002 -0.002 c 5.1e-5,-0.296326 0.0055,-0.555284 0.01563,-0.77539 0.007,-0.139944 0.0098,-0.277444 0.0098,-0.414063 v -0.002 l -0.0059,-0.447266 0.0059,-0.248046 v -0.0039 c 0.01471,-0.354401 0.02269,-0.710048 0.02734,-1.064453 z"
           id="path32661" />
      </g>
      <g
         id="path32576">
        <path
           style="color:#000000;fill:#1b2838;-inkscape-stroke:none"
           d="m 57.720685,34.677791 q -0.113688,0 -0.227376,-0.0155 -0.165364,-0.02584 -0.335895,-0.07751 -0.310058,-0.103353 -0.361734,-0.434081 -0.03101,-0.170531 -0.03101,-0.341063 0,-0.28422 0.04651,-0.563271 0.113687,-0.775144 0.310057,-1.534786 0.02584,-0.113687 0.05168,-0.222208 0.05168,-0.289387 0.165364,-0.558103 0.232543,-0.470254 0.501259,-0.919838 0.263549,-0.444416 0.490925,-0.904334 0.227376,-0.459919 0.346231,-0.966347 0.08785,-0.408242 0.08785,-0.811317 0,-0.558104 -0.149862,-1.11104 -0.113687,-0.444416 -0.418577,-0.775144 -0.05168,-0.05168 -0.103353,-0.05168 -0.04134,0 -0.09302,0.03101 -0.475422,0.289387 -0.733803,0.769976 -0.28422,0.542601 -0.397907,1.152381 -0.02584,0.170531 -0.02584,0.341063 0,0.268717 0.05684,0.532266 0.05684,0.263549 0.139526,0.527098 0.03101,0.07751 0.04651,0.165364 0.0155,0.09818 0.103352,0.139526 0.103353,0.05168 0.103353,0.113687 0,0.05684 -0.08268,0.124023 -0.118855,0.08268 -0.258381,0.103353 -0.08785,0.02067 -0.180867,0.02067 -0.403075,0 -0.775144,-0.28422 -0.372069,-0.289387 -0.470254,-0.692462 -0.08268,-0.439248 -0.09302,-0.883664 v -0.07751 q 0,-0.310057 0.04651,-0.614947 0.05168,-0.30489 0.201537,-0.58911 l 0.01034,-0.02067 q 0.165364,-0.351399 0.428913,-0.640786 0.07751,-0.07751 0.149861,-0.160196 0.227375,-0.279052 0.542601,-0.470254 0.594277,-0.315225 1.255733,-0.315225 l 0.19637,0.0052 q 0.465086,0.02584 0.883664,0.222208 0.299722,0.144694 0.50126,0.377237 0.206705,0.232543 0.346231,0.527098 0.242878,0.465086 0.310057,0.981849 0.02067,0.139526 0.02067,0.284219 0,0.186035 -0.02584,0.377237 -0.03617,0.60978 -0.191202,1.193722 -0.232544,0.775144 -0.620116,1.493444 -0.258381,0.475422 -0.485757,0.966346 -0.06718,0.139526 -0.134358,0.28422 -0.232543,0.470254 -0.361734,0.976681 -0.03101,0.129191 -0.06201,0.253214 -0.206705,0.764809 -0.263549,1.550288 0,0.05168 0.0052,0.10852 0.01034,0.05168 0.04651,0.10852 0.02584,0.03617 0.02584,0.07235 0,0.09819 -0.155029,0.165364 -0.186034,0.06718 -0.382404,0.06718 z m 0.08268,1.498612 q -0.19637,0 -0.39274,-0.07235 -0.170531,-0.07235 -0.206705,-0.253214 -0.01033,-0.05168 -0.02584,-0.103352 -0.03101,-0.129191 -0.06718,-0.258381 -0.0155,-0.04134 -0.0155,-0.07751 0,-0.10852 0.10852,-0.155029 0.242879,-0.113687 0.490925,-0.113687 0.21704,0 0.439248,0.08785 0.09819,0.04134 0.129191,0.118856 0.03101,0.07751 0.03101,0.170531 l -0.0052,0.129191 q 0.0052,0.03101 0.0052,0.06718 0,0.06718 0.01034,0.139526 l 0.0052,0.05684 q 0,0.144694 -0.155028,0.201537 -0.1757,0.06201 -0.351399,0.06201 z"
           id="path32665" />
        <path
           style="color:#000000;fill:#000000;-inkscape-stroke:none"
           d="m 58.066406,24.53125 c -0.461985,0 -0.902272,0.110407 -1.316406,0.330078 l -0.0039,0.002 -0.0039,0.002 c -0.220884,0.133979 -0.411826,0.30019 -0.572265,0.496094 -6.05e-4,6.91e-4 -0.0013,0.0013 -0.002,0.002 -5.83e-4,7.14e-4 -0.0014,0.0012 -0.002,0.002 -0.04518,0.05146 -0.09233,0.102092 -0.140625,0.150391 l -0.002,0.002 -0.002,0.002 c -0.184373,0.202449 -0.335357,0.427723 -0.451172,0.673828 l -0.0098,0.01758 c -0.105432,0.20051 -0.176186,0.41041 -0.212891,0.626954 v 0.002 c -0.03202,0.209868 -0.04883,0.421446 -0.04883,0.634765 v 0.07813 0.002 c 0.0071,0.303462 0.03927,0.60448 0.0957,0.904297 v 0.0039 l 0.002,0.0039 c 0.07283,0.298977 0.250489,0.557888 0.517578,0.765625 0.266359,0.203469 0.555659,0.3125 0.855469,0.3125 0.06846,0 0.135511,-0.0088 0.201172,-0.02344 8.47e-4,-1.25e-4 0.0011,-0.0018 0.002,-0.002 0.111984,-0.01699 0.218297,-0.05752 0.3125,-0.123047 l 0.0039,-0.002 0.0039,-0.0039 c 0.06929,-0.0563 0.130859,-0.124525 0.130859,-0.226563 0,-0.05742 -0.02722,-0.111773 -0.06055,-0.148437 -0.03333,-0.03666 -0.07132,-0.06202 -0.115234,-0.08398 h -0.002 l -0.002,-0.002 c -0.02478,-0.01166 -0.02452,-0.0088 -0.0293,-0.03906 v -0.002 c -0.01121,-0.06356 -0.02833,-0.12566 -0.05078,-0.183594 l -0.002,-0.0098 c -0.05263,-0.168729 -0.09648,-0.337402 -0.132812,-0.505859 -0.03594,-0.166641 -0.05469,-0.334089 -0.05469,-0.503906 0,-0.105708 0.0076,-0.210483 0.02344,-0.316406 0.07333,-0.393327 0.201833,-0.763652 0.384765,-1.113282 v -0.002 c 0.161428,-0.299735 0.387715,-0.537461 0.685547,-0.71875 0.02111,-0.01267 0.02896,-0.01172 0.02344,-0.01172 -0.0067,0 0.002,0.0052 0.0078,0.0098 0.188799,0.204798 0.316012,0.442348 0.386719,0.71875 v 0.002 c 0.09697,0.357777 0.146484,0.715944 0.146484,1.076172 0,0.259106 -0.02925,0.519796 -0.08594,0.783203 -0.07697,0.327121 -0.189213,0.638765 -0.335938,0.935547 -0.150086,0.303584 -0.310374,0.601119 -0.484375,0.894531 -0.180943,0.302733 -0.351234,0.613052 -0.507812,0.929688 v 0.0039 l -0.002,0.002 c -0.07858,0.185743 -0.135626,0.380436 -0.171875,0.580078 -4.66e-4,0.002 -0.0015,0.0039 -0.002,0.0059 -1.11e-4,6.18e-4 1.1e-4,0.0013 0,0.002 -0.01673,0.07036 -0.03407,0.141312 -0.05078,0.214844 -0.131639,0.509781 -0.236207,1.024742 -0.3125,1.544921 l 0.002,-0.002 c -0.0322,0.193219 -0.04883,0.389242 -0.04883,0.585938 0,0.121707 0.01114,0.241957 0.0332,0.363281 0.04117,0.256809 0.205402,0.455837 0.449218,0.537109 h 0.002 0.002 c 0.119187,0.03611 0.236837,0.0638 0.353515,0.08203 h 0.002 c 0.05701,0.0078 0.114766,0.0094 0.171875,0.01172 l 0.0039,0.0059 h 0.07031 c 0.145999,0 0.289726,-0.02634 0.427734,-0.07617 h 0.0039 l 0.0039,-0.002 c 0.06246,-0.02707 0.116447,-0.05885 0.160156,-0.105469 0.04371,-0.04662 0.07422,-0.114099 0.07422,-0.181641 0,-0.05561 -0.02143,-0.107347 -0.05078,-0.148437 l 0.0039,0.0059 c -0.01634,-0.02568 -0.02205,-0.04613 -0.02539,-0.06055 -0.0022,-0.02696 -0.0056,-0.05191 -0.0059,-0.07617 v -0.002 c 0.03736,-0.514562 0.12431,-1.022253 0.259766,-1.523437 v -0.002 c 0.02062,-0.0825 0.04188,-0.168041 0.0625,-0.253906 v -0.002 c 0.08382,-0.328062 0.200856,-0.644456 0.351562,-0.949218 l 0.002,-0.002 c 0.04453,-0.09592 0.0883,-0.190762 0.132813,-0.283204 l 0.002,-0.002 c 0.150397,-0.324719 0.309563,-0.644517 0.480469,-0.958984 0.262573,-0.486637 0.473249,-0.992214 0.630859,-1.517578 l 0.002,-0.002 v -0.002 c 0.10478,-0.394664 0.168284,-0.799234 0.193359,-1.210938 0.01799,-0.133111 0.02734,-0.264383 0.02734,-0.394531 0,-0.102102 -0.0069,-0.201824 -0.02148,-0.300781 v -0.002 c -0.0467,-0.357564 -0.154811,-0.697791 -0.322266,-1.019531 l -0.002,-0.002 c -0.09763,-0.205529 -0.217939,-0.39094 -0.363281,-0.554687 -0.146722,-0.169294 -0.328622,-0.306678 -0.542969,-0.410157 h -0.002 c -0.294088,-0.137965 -0.605246,-0.218193 -0.931641,-0.236328 h -0.002 l -0.201172,-0.0039 z m -0.0039,0.263672 0.193359,0.0059 c 0.293719,0.01632 0.569969,0.08513 0.833985,0.208985 0.185281,0.08945 0.336989,0.202986 0.458984,0.34375 v 0.002 c 0.129196,0.145345 0.238209,0.310393 0.326172,0.496093 l 0.002,0.002 v 0.002 c 0.154929,0.296672 0.254063,0.608171 0.296875,0.9375 v 0.002 0.002 c 0.01281,0.08646 0.01953,0.173509 0.01953,0.263672 0,0.117898 -0.0089,0.23755 -0.02539,0.359375 v 0.0059 0.0039 c -0.02352,0.396562 -0.087,0.784528 -0.1875,1.164063 -0.152449,0.50816 -0.355187,0.997654 -0.609375,1.46875 -0.173602,0.319428 -0.335511,0.642811 -0.488282,0.972656 -0.04481,0.09309 -0.08998,0.188689 -0.134765,0.285156 -0.158148,0.320489 -0.281097,0.65487 -0.369141,1 h -0.002 v 0.002 c -0.02058,0.08574 -0.03998,0.169687 -0.06055,0.251953 -0.139401,0.516723 -0.229165,1.041464 -0.267578,1.572265 v 0.0039 0.0059 c 0,0.03889 0.0021,0.07958 0.0059,0.121094 v 0.0059 l 0.002,0.0078 c 0.01088,0.0544 0.03366,0.103946 0.06445,0.152343 l 0.002,0.002 c -0.0072,0.0076 -0.03092,0.02518 -0.06445,0.04102 -6.18e-4,2.23e-4 -0.0013,-2.22e-4 -0.002,0 -0.109437,0.03929 -0.220761,0.05859 -0.335938,0.05859 -0.06913,0 -0.137741,-0.0043 -0.207031,-0.01367 h -0.002 c -0.102015,-0.01603 -0.206258,-0.04025 -0.3125,-0.07227 -0.168636,-0.05621 -0.244893,-0.145435 -0.273438,-0.328125 v -0.002 -0.002 c -0.01928,-0.10605 -0.0293,-0.210737 -0.0293,-0.316406 0,-0.182264 0.01511,-0.36412 0.04492,-0.542969 v -0.002 c 0.07511,-0.512081 0.178861,-1.019624 0.308594,-1.521484 v -0.002 -0.002 c 0.01713,-0.07537 0.03366,-0.148816 0.05078,-0.220703 l 0.002,-0.0039 v -0.0039 c 0.03264,-0.182753 0.08663,-0.357803 0.158203,-0.527344 2.44e-4,-5.76e-4 -2.43e-4,-0.0014 0,-0.002 0.152386,-0.307641 0.316337,-0.60813 0.492188,-0.902344 v -0.002 c 0.177398,-0.299141 0.343013,-0.60247 0.496094,-0.912109 0.156074,-0.315696 0.27398,-0.646926 0.355468,-0.994141 l 0.002,-0.002 v -0.002 c 0.06045,-0.280915 0.08984,-0.559564 0.08984,-0.837891 0,-0.383267 -0.05179,-0.765687 -0.154297,-1.144531 v -0.002 c -0.08098,-0.315446 -0.231893,-0.594336 -0.449218,-0.830078 l -0.002,-0.002 -0.002,-0.002 c -0.05004,-0.05004 -0.118713,-0.08984 -0.197265,-0.08984 -0.06064,0 -0.112358,0.02015 -0.160156,0.04883 v 0.002 c -0.335639,0.204301 -0.600169,0.479868 -0.783204,0.820312 -0.195567,0.373356 -0.33202,0.770357 -0.410156,1.189453 v 0.002 l -0.002,0.002 c -0.01821,0.120145 -0.02734,0.240958 -0.02734,0.361328 0,0.188472 0.0207,0.37579 0.06055,0.560547 0.03876,0.179738 0.08628,0.359607 0.142578,0.539062 l 0.002,0.0039 0.002,0.0059 c 0.01709,0.04273 0.03019,0.08841 0.03906,0.138672 0.01637,0.100059 0.08586,0.193089 0.177734,0.236328 0.0047,0.0025 0.0041,0.0036 0.0078,0.0059 -0.0019,0.0025 -0.0033,-9.79e-4 -0.0078,0.0039 -0.06356,0.04421 -0.12806,0.06925 -0.201171,0.08008 l -0.0059,0.002 h -0.0059 c -0.04843,0.0114 -0.09818,0.01758 -0.150391,0.01758 -0.237034,0 -0.464206,-0.08127 -0.693359,-0.25586 -0.228173,-0.177467 -0.363439,-0.379851 -0.421875,-0.617187 -0.05323,-0.283936 -0.08306,-0.568329 -0.08984,-0.855469 v -0.002 -0.07422 c 0,-0.200089 0.01492,-0.399052 0.04492,-0.595703 0.03218,-0.1883 0.09417,-0.369869 0.1875,-0.546875 v -0.002 l 0.01172,-0.02344 c 0.103666,-0.220291 0.239478,-0.421519 0.404297,-0.603516 l 0.0039,-0.0059 c 0.05201,-0.05222 0.10176,-0.106532 0.15039,-0.16211 l 0.002,-0.002 0.002,-0.002 c 0.140853,-0.172866 0.308191,-0.316118 0.503906,-0.435547 0.376542,-0.199392 0.769633,-0.300173 1.1875,-0.300781 z m -0.367188,10.214844 c -0.184171,0 -0.366638,0.04311 -0.542968,0.125 -5.12e-4,2.19e-4 5.1e-4,0.0017 0,0.002 -0.105842,0.04612 -0.189453,0.159506 -0.189453,0.27539 0,0.03959 0.0087,0.07668 0.02148,0.113282 1.71e-4,6.11e-4 -1.71e-4,0.0013 0,0.002 9.02e-4,0.0025 10e-4,0.0053 0.002,0.0078 0.02265,0.08134 0.04299,0.162842 0.0625,0.244141 l 0.002,0.002 v 0.0039 c 0.0092,0.03056 0.01738,0.06151 0.02344,0.0918 0.03129,0.156452 0.138078,0.28721 0.285156,0.349609 h 0.002 l 0.0039,0.002 c 0.144337,0.05318 0.29034,0.08008 0.4375,0.08008 0.0013,0 0.0026,4e-6 0.0039,0 0.131425,-4.47e-4 0.263638,-0.02481 0.392578,-0.07031 h 0.002 c 0.137414,-0.05038 0.240234,-0.182463 0.240234,-0.326172 v -0.0059 l -0.0059,-0.06641 v -0.002 c -0.0061,-0.04255 -0.0098,-0.0831 -0.0098,-0.121094 0,-0.02118 -0.0016,-0.04206 -0.0039,-0.0625 l 0.0039,-0.13086 v -0.0039 c 0,-0.07671 -0.01161,-0.150131 -0.03906,-0.21875 -0.03554,-0.08886 -0.113047,-0.154304 -0.201172,-0.191406 l -0.002,-0.002 c -0.161834,-0.06398 -0.325739,-0.09766 -0.488282,-0.09766 z m 0,0.265625 c 0.125625,0 0.253666,0.02601 0.386719,0.07813 0.04279,0.01802 0.0528,0.03043 0.05859,0.04492 0.01389,0.03473 0.02148,0.07378 0.02148,0.121094 l -0.0059,0.138672 0.002,0.01367 c 0.0021,0.0124 0.0039,0.02715 0.0039,0.04492 0,0.05157 0.004,0.104295 0.01172,0.158203 l 0.0039,0.03711 c 0,0.04922 9.3e-4,0.05272 -0.06836,0.07813 -0.103415,0.03628 -0.205695,0.05469 -0.306641,0.05469 h -0.0059 c -0.110799,-6.62e-4 -0.220551,-0.02143 -0.333984,-0.0625 -5.96e-4,-2.53e-4 5.9e-4,-0.0017 0,-0.002 -0.07898,-0.03388 -0.112092,-0.07218 -0.128907,-0.15625 -0.0072,-0.03601 -0.01685,-0.07166 -0.02734,-0.107422 l -0.002,-0.0078 c -0.02054,-0.08515 -0.04258,-0.170752 -0.06641,-0.255859 l -0.002,-0.0059 -0.002,-0.0039 c -0.0059,-0.01568 -0.0059,-0.02603 -0.0059,-0.03125 0,-0.02825 -0.01076,-0.01687 0.02734,-0.0332 l 0.002,-0.002 h 0.002 c 0.146258,-0.06846 0.290394,-0.101562 0.435546,-0.101562 z"
           id="path32667" />
      </g>
    </g>
  </g>
</svg>
