<?xml version="1.0" encoding="UTF-8" standalone="no"?>
<!-- Created with Inkscape (http://www.inkscape.org/) -->

<svg
   width="39.838268mm"
   height="10.263941mm"
   viewBox="0 0 39.838268 10.263941"
   version="1.1"
   id="svg5"
   inkscape:version="1.1.2 (b8e25be833, 2022-02-05)"
   sodipodi:docname="ERP NPC.svg"
   xmlns:inkscape="http://www.inkscape.org/namespaces/inkscape"
   xmlns:sodipodi="http://sodipodi.sourceforge.net/DTD/sodipodi-0.dtd"
   xmlns="http://www.w3.org/2000/svg"
   xmlns:svg="http://www.w3.org/2000/svg">
  <sodipodi:namedview
     id="namedview7"
     pagecolor="#505050"
     bordercolor="#eeeeee"
     borderopacity="1"
     inkscape:pageshadow="0"
     inkscape:pageopacity="0"
     inkscape:pagecheckerboard="false"
     inkscape:document-units="mm"
     showgrid="false"
     inkscape:zoom="5.8653759"
     inkscape:cx="104.25589"
     inkscape:cy="22.675443"
     inkscape:window-width="1920"
     inkscape:window-height="1009"
     inkscape:window-x="-8"
     inkscape:window-y="-8"
     inkscape:window-maximized="1"
     inkscape:current-layer="text7106"
     fit-margin-top="0"
     fit-margin-left="0"
     fit-margin-right="0"
     fit-margin-bottom="0" />
  <defs
     id="defs2" />
  <g
     inkscape:label="Capa 1"
     inkscape:groupmode="layer"
     id="layer1"
     transform="translate(-3.6436257,-25.15337)">
    <text
       xml:space="preserve"
       style="font-style:normal;font-variant:normal;font-weight:normal;font-stretch:normal;font-size:10.5833px;line-height:1.25;font-family:'Tw Cen MT';-inkscape-font-specification:'Tw Cen MT';fill:#000000;fill-opacity:1;stroke:none;stroke-width:0.264583"
       x="61.807056"
       y="30.01745"
       id="text4461"><tspan
         sodipodi:role="line"
         id="tspan4459"
         style="font-style:normal;font-variant:normal;font-weight:normal;font-stretch:normal;font-family:'Tw Cen MT';-inkscape-font-specification:'Tw Cen MT';stroke-width:0.264583"
         x="61.807056"
         y="30.01745" /></text>
    <g
       aria-label="ERP NPC
"
       id="text7106"
       style="font-size:10.5833px;line-height:1.25;font-family:'Tw Cen MT';-inkscape-font-specification:'Tw Cen MT';fill:#1b2838;stroke:#000000;stroke-width:0.264583">
      <path
         d="m 7.0366897,35.274685 q -0.4805893,0 -0.9663462,-0.07751 -0.6821267,-0.08785 -1.0748664,-0.341063 -1.2195599,-0.862994 -1.2195599,-3.539825 0,-1.157548 0.222208,-2.909373 0.046509,-0.408243 0.082682,-0.744139 0.041341,-0.341063 0.1498612,-0.795814 0.051676,-0.232543 0.067179,-0.335896 0.051676,-0.346231 0.1653641,-0.676959 0.1136878,-0.330728 0.387572,-0.423745 0.4805893,-0.113688 0.9663462,-0.124024 l 0.1136878,-0.0052 h 0.3203929 q 0.3358957,-0.0155 0.6666238,-0.0155 l 0.9818491,0.01034 0.5839418,-0.01034 q 0.2687166,0 0.5374332,0.07235 0.08785,0.03101 0.1860346,0.170531 0.098185,0.139526 0.098185,0.289388 0,0.103352 -0.067179,0.180866 Q 9.1244109,26.13832 8.6954979,26.13832 8.333764,26.122817 8.0133712,26.11765 l -0.3203929,-0.01034 q -0.3203928,0 -0.5270979,0.0155 -0.2067051,0.01034 -0.4134101,0.01034 l -0.1601965,-0.0052 q 0.00517,0.03617 0.00517,0.206705 0.00517,0.170532 0.010335,0.41341 0.00517,0.237711 0.00517,0.459919 0,0.299722 -0.010335,0.459919 l -0.025838,0.444416 -0.072347,1.426265 0.00517,0.05684 q 0,0.03617 -0.025838,0.165364 0,0.03101 0.025838,0.03617 0.051676,0.02067 0.4185778,0.03101 0.2893871,0.01034 0.5787742,0.04651 0.1550288,0.02584 0.2842194,0.10852 0.082682,0.07751 0.082682,0.186034 0,0.124023 -0.1033526,0.201538 -0.1756993,0.08268 -0.3720691,0.08268 -0.4030749,0.01033 -0.8061498,0.01033 -0.082682,0 -0.1085201,0.03617 -0.046509,0.06201 -0.046509,0.831988 l 0.00517,0.201538 q 0,0.496092 -0.067179,0.987016 -0.051676,0.294555 -0.051676,0.583942 0,0.48059 0.139526,0.78548 0.206705,0.671791 0.6252828,0.671791 0.4340806,0 0.8733289,-0.232543 0.2842195,-0.134358 0.5839418,-0.134358 0.2118727,0 0.4237454,0.05684 0.031006,0.0052 0.056844,0.02067 0.2118727,0.07235 0.2118727,0.206705 0,0.09819 -0.1343583,0.206705 -0.5787742,0.444416 -1.2970743,0.532266 -0.3824044,0.05684 -0.7699764,0.05684 z"
         style="fill:#66c0f4"
         id="path125760" />
      <path
         d="m 11.635878,31.2336 q 0.02067,0 0.03101,-0.01033 0.0155,-0.0155 0.02067,-0.03101 0.118855,-0.170531 0.258381,-0.315225 0.09302,-0.09818 0.180867,-0.206705 0.573607,-0.749306 0.754474,-1.689814 0.05168,-0.237711 0.05168,-0.475422 0,-0.242878 -0.06718,-0.485756 -0.10852,-0.387572 -0.279052,-0.754474 -0.170532,-0.372069 -0.428913,-0.69763 -0.02584,-0.03617 -0.05684,-0.07235 -0.08268,-0.113688 -0.180867,-0.211873 -0.09302,-0.09819 -0.232543,-0.144694 -0.10852,1.653641 -0.10852,3.317617 0,0.883664 0.04651,1.777663 z m 2.227247,4.035917 q -0.227376,0 -0.568439,-0.30489 -0.341064,-0.310058 -0.754474,-0.82682 -0.41341,-0.521931 -0.857826,-1.173052 0,-0.0052 -0.0052,-0.0052 -0.0052,-0.0155 -0.02067,-0.03101 -0.01034,-0.0155 -0.03617,-0.02067 v 0.03617 q 0,0.310057 -0.05168,0.857826 -0.05168,0.542601 -0.113687,0.852658 -0.103353,0.459919 -0.573607,0.573607 -0.175699,0.03617 -0.346231,0.03617 -0.242878,0 -0.485757,-0.07751 Q 9.8685492,35.135159 9.8117053,34.949124 9.636006,34.344512 9.4654743,32.742547 9.2949426,31.135415 9.2949426,29.424931 q 0,-1.049028 0.098185,-1.958531 0.098185,-0.914669 0.3307281,-1.488276 0.2325432,-0.573607 0.6304504,-0.640786 0.341063,-0.04651 0.682127,-0.04651 0.449583,0 0.888832,0.09302 0.439248,0.09302 0.868161,0.30489 0.635618,0.299722 1.038693,0.899167 0.186034,0.268716 0.335896,0.552936 0.175699,0.366901 0.21704,0.749306 0.05684,0.356566 0.05684,0.713132 0,0.222208 -0.02584,0.444416 -0.09302,0.759641 -0.50126,1.395259 -0.06718,0.103353 -0.129191,0.211873 -0.06718,0.129191 -0.149861,0.253214 -0.211873,0.320393 -0.475422,0.589109 -0.263549,0.268717 -0.60978,0.459919 -0.07235,0.03617 -0.07235,0.07751 0,0.03101 0.05168,0.08268 0.289387,0.32556 0.496092,0.702797 0.113688,0.191202 0.232543,0.372069 0.160197,0.232543 0.310058,0.470254 0.253214,0.39274 0.532265,0.775144 0.155029,0.201537 0.341064,0.372069 0.07235,0.07235 0.07235,0.144694 0,0.09302 -0.09819,0.170531 -0.222208,0.134359 -0.485757,0.134359 z"
         style="fill:#66c0f4"
         id="path125762" />
      <path
         d="m 17.656162,31.445473 q 0.723468,0 1.271236,-1.064531 0.372069,-0.614948 0.372069,-1.374589 0,-0.284219 -0.103352,-0.563271 -0.325561,-0.769976 -0.842323,-1.431433 -0.325561,-0.377236 -0.759641,-0.625283 -0.02584,-0.0155 -0.04134,-0.0155 -0.03101,0 -0.03101,0.05168 -0.0052,0.620115 -0.03101,1.24023 l -0.0052,0.253214 0.0052,0.449584 q 0,0.201537 -0.01034,0.408242 -0.0155,0.335896 -0.0155,0.785479 l 0.01033,0.532266 q 0.0155,0.248046 0.0155,0.50126 0,0.248046 -0.02584,0.501259 v 0.268717 q 0,0.07235 0.06201,0.07751 0.06201,0 0.129191,0.0052 z m -1.074866,3.839547 q -0.366902,0 -0.7183,-0.180867 -0.113688,-0.06718 -0.144694,-0.19637 -0.294555,-1.059363 -0.39274,-2.061883 -0.134358,-1.369421 -0.134358,-2.392611 l 0.0052,-0.289387 q 0.01033,-0.186035 0.01033,-0.635618 l -0.01033,-0.888832 q 0,-0.372069 0.0155,-0.744139 0.01034,-0.320392 0.01034,-0.640785 V 27.14084 q 0,-0.403075 0.03101,-0.800982 0.02584,-0.299723 0.134358,-0.568439 0.124023,-0.28422 0.444416,-0.387572 0.335896,-0.08785 0.671791,-0.08785 0.144694,0 0.294555,0.0155 0.847491,0.05168 1.550288,0.232543 0.837156,0.222208 1.493444,0.811318 1.007687,0.93534 1.271236,2.294426 0.05684,0.294555 0.05684,0.578774 0,0.470254 -0.149861,0.925005 -0.284219,0.728636 -0.883664,1.209225 -0.630451,0.516763 -1.4366,0.60978 -0.506428,0.07751 -1.012855,0.07751 h -0.170532 q -0.04651,0 -0.06201,0.02067 -0.01034,0.02067 -0.01034,0.403075 v 0.160196 q 0,0.279052 -0.02584,0.558104 l -0.02584,0.315225 q 0,0.180867 -0.0155,0.382405 l -0.03617,0.423745 q -0.0155,0.341063 -0.07752,0.682127 -0.07235,0.289387 -0.682126,0.289387 z"
         style="fill:#66c0f4"
         id="path125764" />
      <path
         d="m 25.624643,35.28502 q -0.795814,0 -0.909502,-0.532266 l -0.08785,-0.320393 q -0.05684,-0.175699 -0.08785,-0.320393 -0.02584,-0.149861 -0.02584,-0.52193 0,-0.372069 -0.01034,-0.645953 -0.0052,-0.279052 -0.0052,-1.152381 0,-0.837155 0.01034,-1.663976 0,-0.759641 -0.03617,-1.519282 l -0.0052,-0.418578 q 0,-1.514114 0.149861,-2.113559 0.175699,-0.58911 0.454751,-0.661456 0.315226,-0.103353 0.625283,-0.103353 0.315225,0 0.620115,0.124023 0.330728,0.113688 0.58911,0.372069 0.170532,0.211873 0.263549,0.475422 0.222208,0.496092 0.418578,1.173051 0.09818,0.325561 0.206705,0.645954 0.222208,0.656288 0.41341,1.32808 0.191202,0.666623 0.43408,1.32808 0.144694,0.392739 0.258382,0.795814 l 0.07751,0.253214 h 0.03617 l 0.01033,-0.10852 q 0.02067,-0.165364 0.03101,-0.325561 0.0155,-0.63045 0.09818,-1.782831 0.139526,-4.087593 0.630451,-4.196113 0.155029,-0.04134 0.310058,-0.04134 0.749305,0 0.749305,0.366902 l -0.155028,7.317359 q -0.02067,1.457271 -0.180867,1.901687 -0.10852,0.237711 -0.41341,0.284219 -0.320393,0.04134 -0.537434,0.04134 -0.263549,0 -0.52193,-0.05168 -0.294555,-0.08268 -1.24023,-2.077386 -0.408243,-0.862994 -0.997352,-2.470126 l -0.0052,-0.0155 q -0.0155,-0.06718 -0.06201,-0.108521 l -0.0052,0.78548 q 0,0.330728 0.01034,0.558103 0.0155,0.30489 0.0155,0.604613 0,1.76216 -0.232543,2.268588 l -0.07235,0.155029 Q 26.2861,35.28502 25.624643,35.28502 Z"
         style="font-family:'Lemon Tea';-inkscape-font-specification:'Lemon Tea'"
         id="path125766" />
      <path
         d="m 34.38377,31.445473 q 0.723468,0 1.271236,-1.064531 0.372069,-0.614948 0.372069,-1.374589 0,-0.284219 -0.103352,-0.563271 -0.325561,-0.769976 -0.842324,-1.431433 -0.32556,-0.377236 -0.759641,-0.625283 -0.02584,-0.0155 -0.04134,-0.0155 -0.03101,0 -0.03101,0.05168 -0.0052,0.620115 -0.03101,1.24023 l -0.0052,0.253214 0.0052,0.449584 q 0,0.201537 -0.01034,0.408242 -0.0155,0.335896 -0.0155,0.785479 l 0.01033,0.532266 q 0.0155,0.248046 0.0155,0.50126 0,0.248046 -0.02584,0.501259 v 0.268717 q 0,0.07235 0.06201,0.07751 0.06201,0 0.129191,0.0052 z m -1.074867,3.839547 q -0.366901,0 -0.7183,-0.180867 -0.113688,-0.06718 -0.144693,-0.19637 Q 32.151355,33.84842 32.05317,32.8459 31.918812,31.476479 31.918812,30.453289 l 0.0052,-0.289387 q 0.01034,-0.186035 0.01034,-0.635618 l -0.01034,-0.888832 q 0,-0.372069 0.0155,-0.744139 0.01034,-0.320392 0.01034,-0.640785 V 27.14084 q 0,-0.403075 0.03101,-0.800982 0.02584,-0.299723 0.134359,-0.568439 0.124023,-0.28422 0.444416,-0.387572 0.335895,-0.08785 0.671791,-0.08785 0.144694,0 0.294555,0.0155 0.847491,0.05168 1.550288,0.232543 0.837155,0.222208 1.493444,0.811318 1.007687,0.93534 1.271236,2.294426 0.05684,0.294555 0.05684,0.578774 0,0.470254 -0.149861,0.925005 -0.28422,0.728636 -0.883664,1.209225 -0.630451,0.516763 -1.436601,0.60978 -0.506427,0.07751 -1.012854,0.07751 h -0.170532 q -0.04651,0 -0.06201,0.02067 -0.01033,0.02067 -0.01033,0.403075 v 0.160196 q 0,0.279052 -0.02584,0.558104 l -0.02584,0.315225 q 0,0.180867 -0.0155,0.382405 l -0.03617,0.423745 q -0.0155,0.341063 -0.07751,0.682127 -0.07235,0.289387 -0.682127,0.289387 z"
         style="font-family:'Lemon Tea';-inkscape-font-specification:'Lemon Tea'"
         id="path125768" />
      <path
         d="m 41.437582,35.259182 q -0.397907,0 -0.790646,-0.09302 -0.403075,-0.08785 -0.738971,-0.294554 -0.335896,-0.206705 -0.573607,-0.558104 -0.05684,-0.07751 -0.118855,-0.149861 -0.08785,-0.08785 -0.155029,-0.19637 -0.330728,-0.537433 -0.465086,-1.157548 -0.0155,-0.06201 -0.02584,-0.129191 -0.06201,-0.253214 -0.103353,-0.506428 -0.03617,-0.346231 -0.04651,-0.697629 -0.0052,-0.170532 -0.0155,-0.346231 -0.03101,-0.444416 -0.03101,-0.894 0,-0.403074 0.03617,-0.800982 0.03101,-0.351398 0.08268,-0.697629 0.05168,-0.346231 0.165364,-0.682127 0.160197,-0.418578 0.397908,-0.795815 0.04134,-0.07235 0.07751,-0.144693 0.103352,-0.19637 0.222208,-0.377237 0.315225,-0.465086 0.713132,-0.82682 0.403075,-0.366902 0.961179,-0.521931 0.299722,-0.07751 0.594277,-0.07751 0.511595,0 0.981849,0.273884 0.191202,0.118856 0.289387,0.30489 0.103353,0.180867 0.144694,0.39274 l 0.05168,0.237711 q 0.08785,0.346231 0.10852,0.707965 0,0.139526 -0.02067,0.273884 -0.0155,0.134358 -0.07235,0.263549 -0.103353,0.253214 -0.387572,0.289387 l -0.134358,0.01033 q -0.108521,0 -0.222208,-0.02584 -0.180867,-0.04134 -0.222208,-0.237711 -0.07751,-0.335896 -0.07751,-0.682127 v -0.155028 q 0,-0.377237 -0.227375,-0.687295 -0.06201,-0.09819 -0.103353,-0.09819 -0.04134,0 -0.09819,0.108521 -0.372069,0.692462 -0.423745,1.467606 -0.04134,0.408242 -0.118856,0.811317 -0.07235,0.372069 -0.113687,0.749306 -0.06718,0.583942 -0.06718,1.167883 0,0.155029 0.0052,0.315226 0.07235,0.940508 0.28422,1.855178 0.04651,0.206705 0.08785,0.418578 0.06201,0.294554 0.155029,0.583941 0.03617,0.129191 0.07235,0.253214 0.03617,0.129191 0.160196,0.263549 l 0.07235,-0.124023 q 0.186035,-0.310058 0.325561,-0.620115 0.144693,-0.315225 0.144693,-0.676959 l -0.01033,-0.1757 q 0,-0.124023 0.10852,-0.160196 0.21704,-0.09819 0.428913,-0.09819 0.21704,0 0.423745,0.103353 0.103353,0.05684 0.134359,0.155028 0.03101,0.09302 0.03101,0.19637 0.0052,0.04651 0.01034,0.08785 0.0052,0.07751 0.0052,0.155029 0,0.232543 -0.05684,0.459918 -0.05684,0.222208 -0.149861,0.439249 -0.12919,0.30489 -0.294554,0.589109 -0.08785,0.155029 -0.170532,0.315225 -0.160197,0.258382 -0.465087,0.330728 -0.387572,0.108521 -0.775144,0.108521 z"
         style="font-family:'Lemon Tea';-inkscape-font-specification:'Lemon Tea'"
         id="path125770" />
    </g>
  </g>
</svg>
